<svg width="100" height="31" viewBox="0 0 100 31" fill="none" xmlns="http://www.w3.org/2000/svg">
<g clip-path="url(#clip0_1_209)">
<path d="M63.7625 19.0249C63.7625 16.0999 62.3 13.0375 61.85 11.8624C61.6375 8.9999 60.9125 3.27493 59.7125 3.27493C56.825 3.27493 53.1125 5.56243 53.1125 8.07493C51.2375 6.94993 49.4675 7.69993 48.3875 8.44993C47.6875 6.27493 45.8375 1.92493 44.0375 1.92493C40.4375 1.92493 38.1875 7.36243 37.2125 11.8624C37.128 12.2522 36.275 15.0649 36.275 19.0249C36.275 25.0624 43.625 28.9624 51.875 28.9624C60.875 28.9624 63.7625 21.4999 63.7625 19.0249Z" fill="#2E004B" stroke="#2E004B" stroke-width="1.8" stroke-linecap="round"/>
<path d="M63.7625 19.1C63.7625 16.175 62.3 13.1125 61.85 11.9375C61.6375 9.07498 60.9125 3.35 59.7125 3.35C58.2125 3.35 53.1125 7.1375 53.1125 8.525C51.9875 8.21248 49.4675 7.775 48.3875 8.525C47.6875 6.35 45.8375 2 44.0375 2C41.7875 2 38.4875 8.075 37.5125 12.575C37.4281 12.9648 36.875 14.5775 36.875 18.5375C36.875 23.4875 43.625 28.6625 51.875 28.6625C60.125 28.6625 63.7625 21.575 63.7625 19.1Z" fill="white"/>
<path d="M47.7875 14.525C42.2375 14.525 39.675 20.35 38.4875 23.0374C33.6125 16.775 35.6375 0.199951 49.85 0.199951C62.675 0.199951 64.575 16.25 64.0625 19.9625C64.0625 16.475 62.075 13.775 57.9125 14.525C55.2257 15.0091 54.825 18.4 55.9625 21.0875C55.9625 21.5375 53.7775 22.4168 52.8125 18.5C52.175 15.9124 51.5375 14.525 47.7875 14.525Z" fill="#FF9034"/>
<path d="M59.9375 3.0874C61.9522 3.0874 62.3533 8.3995 62.2985 11.8887C62.2894 12.4695 61.7271 12.8699 61.169 12.7083L52.4989 10.1978C51.8623 10.0134 51.6202 9.21363 52.009 8.677C53.7083 6.33198 55.5949 3.0874 59.9375 3.0874Z" fill="#FF9034"/>
<path opacity="0.2" d="M46.8875 28.4374C38.1736 26.2386 38.1573 17.9479 39.7149 11.2781C39.8523 10.6897 39.1566 10.274 38.7551 10.7256C36.4183 13.3537 35.7003 16.1338 37.025 21.2749C38.1123 25.4946 43.8375 27.85 46.8875 28.4374Z" fill="#6B4220"/>
<path d="M48.5375 9.38747C48.5375 9.29747 48.4125 8.57499 48.3875 8.52497L48.35 8.41246L49.0625 8.22497C49.175 8.74997 48.5375 9.47747 48.5375 9.38747ZM55.025 9.19997C54.785 9.04997 53.375 8.61249 52.7 8.41246C52.5125 7.87494 52.4 6.88246 53.45 7.21247C54.7625 7.62497 55.325 9.38747 55.025 9.19997Z" fill="#2E004B"/>
<path d="M55.0478 19.625C54.8382 19.625 54.3832 19.7956 54.0028 19.9894C53.5963 20.1965 53.4973 20.6535 53.7681 21.0207C54.2476 21.671 55.0547 22.4 55.5028 22.4C56.2609 22.4 56.6375 20.7556 56.6375 20.3959C56.6375 19.7375 55.5028 19.625 55.0478 19.625Z" fill="#2E004B"/>
<path d="M58.9237 22.7908C59.194 22.9014 59.4067 23.107 59.5525 23.3987C59.8933 24.0804 59.533 24.7807 59.011 25.2265C58.4709 25.6879 57.6514 25.9999 56.7125 25.9999H56.5842C54.9518 26 53.3194 26.0002 51.6658 25.8498C51.2509 25.8454 50.7552 25.7143 50.3499 25.4576C49.9336 25.194 49.55 24.7516 49.55 24.1249L58.9237 22.7908ZM58.9237 22.7908C58.6666 22.6857 58.4005 22.6844 58.1714 22.7127L58.9237 22.7908ZM58.9237 22.7908L58.1714 22.7127L58.9237 22.7908ZM58.1714 22.7127C57.9427 22.741 57.7117 22.8043 57.5122 22.8616L58.1714 22.7127ZM58.1714 22.7127L57.5122 22.8616L58.1714 22.7127ZM57.5122 22.8616L57.4138 22.8901L57.5122 22.8616ZM57.5122 22.8616L57.4138 22.8901L57.5122 22.8616ZM57.4138 22.8901C57.2449 22.939 57.0997 22.9811 56.9617 23.0087L57.4138 22.8901ZM57.4138 22.8901L56.9617 23.0087L57.4138 22.8901ZM56.9617 23.0087C56.1544 23.1702 55.3582 23.0723 54.506 22.9167C54.3577 22.8896 54.2066 22.8604 54.0532 22.8309C53.3492 22.6951 52.5965 22.5499 51.8375 22.5499C51.0897 22.5499 50.5146 22.663 50.1196 22.9414M56.9617 23.0087L50.1196 22.9414L56.9617 23.0087ZM50.1196 22.9414C49.6858 23.2471 49.55 23.6896 49.55 24.1249L50.1196 22.9414Z" fill="#2E004B"/>
<path d="M58.9237 22.7908C58.6666 22.6857 58.4005 22.6844 58.1714 22.7127M58.9237 22.7908L58.1714 22.7127M58.1714 22.7127C57.9427 22.741 57.7117 22.8043 57.5122 22.8616M58.1714 22.7127L57.5122 22.8616M57.5122 22.8616L57.4138 22.8901M57.5122 22.8616L57.4138 22.8901M57.4138 22.8901C57.2449 22.939 57.0997 22.9811 56.9617 23.0087M57.4138 22.8901L56.9617 23.0087M56.9617 23.0087C56.1544 23.1702 55.3582 23.0723 54.506 22.9167C54.3577 22.8896 54.2066 22.8604 54.0532 22.8309C53.3492 22.6951 52.5965 22.5499 51.8375 22.5499C51.0897 22.5499 50.5146 22.663 50.1196 22.9414M56.9617 23.0087L50.1196 22.9414M58.9237 22.7908C59.194 22.9014 59.4067 23.107 59.5525 23.3987C59.8933 24.0804 59.533 24.7807 59.011 25.2265C58.4709 25.6879 57.6514 25.9999 56.7125 25.9999H56.5842C54.9518 26 53.3194 26.0002 51.6658 25.8498C51.2509 25.8454 50.7552 25.7143 50.3499 25.4576C49.9336 25.194 49.55 24.7516 49.55 24.1249L58.9237 22.7908V22.7908ZM50.1196 22.9414C49.6858 23.2471 49.55 23.6896 49.55 24.1249L50.1196 22.9414Z" stroke="#2E004B" stroke-width="0.9" stroke-linecap="round"/>
<path d="M51.9875 24.3125C50.7575 24.3125 49.95 24.4125 49.7 24.4625L51.2 27.9125C53.2625 27.1125 57.215 25.4975 56.525 25.4375C55.6625 25.3625 53.525 24.3125 51.9875 24.3125Z" fill="#FCA0A1"/>
<path d="M51.35 25.475C51.26 24.605 52.5375 24.4375 53.1875 24.4625C52.1675 23.4425 49.7875 23.8124 48.725 24.125C49.6375 24.9374 51.44 26.345 51.35 25.475Z" fill="#D7859B"/>
<path d="M58.9237 22.7908C58.6666 22.6857 58.4005 22.6844 58.1714 22.7127M58.9237 22.7908L58.1714 22.7127M58.1714 22.7127C57.9427 22.741 57.7117 22.8043 57.5122 22.8616M58.1714 22.7127L57.5122 22.8616M57.5122 22.8616L57.4138 22.8901M57.5122 22.8616L57.4138 22.8901M57.4138 22.8901C57.2449 22.939 57.0997 22.9811 56.9617 23.0087M57.4138 22.8901L56.9617 23.0087M56.9617 23.0087C56.1544 23.1702 55.3582 23.0723 54.506 22.9167C54.3577 22.8896 54.2066 22.8604 54.0532 22.8309C53.3492 22.6951 52.5965 22.5499 51.8375 22.5499C51.0897 22.5499 50.5146 22.663 50.1196 22.9414M56.9617 23.0087L50.1196 22.9414M58.9237 22.7908C59.194 22.9014 59.4067 23.107 59.5525 23.3987C59.8933 24.0804 59.533 24.7807 59.011 25.2265C58.4709 25.6879 57.6514 25.9999 56.7125 25.9999H56.5842C54.9518 26 53.3194 26.0002 51.6658 25.8498C51.2509 25.8454 50.7552 25.7143 50.3499 25.4576C49.9336 25.194 49.55 24.7516 49.55 24.1249L58.9237 22.7908V22.7908ZM50.1196 22.9414C49.6858 23.2471 49.55 23.6896 49.55 24.1249L50.1196 22.9414Z" stroke="#2E004B" stroke-width="0.9" stroke-linecap="round"/>
<path d="M50.75 17.45C50.75 18.2747 50.6068 19.068 50.3497 19.6669C50.0926 20.2659 49.7412 20.6249 49.3678 20.6701C48.9943 20.7154 48.6273 20.4435 48.342 19.9103C48.0566 19.3771 47.8748 18.6231 47.8338 17.8035C47.7928 16.9837 47.8958 16.1605 48.1216 15.5031C48.3474 14.8456 48.6787 14.4039 49.0477 14.2686C49.4166 14.1334 49.795 14.315 50.1051 14.776C50.4152 15.237 50.6334 15.9425 50.7149 16.7473L49.2875 17.45H50.75ZM59.5102 15.5541C58.3944 15.8619 57.4402 16.9832 56.9858 17.7998C56.6888 18.3336 57.1474 18.5761 58.0968 18.2081C59.15 17.7998 61.025 17.7998 60.8736 17.5446C60.7524 17.3404 59.6617 17.0342 59.6617 17.0342C60.7721 16.728 61.3788 15.7576 61.227 15.4521C61.1762 15.35 60.6206 15.2479 59.5102 15.5541Z" fill="#2E004B"/>
</g>
<defs>
<clipPath id="clip0_1_209">
<rect width="30" height="30" fill="white" transform="translate(35 0.199951)"/>
</clipPath>
</defs>
</svg>
