<svg width="100" height="31" viewBox="0 0 100 31" fill="none" xmlns="http://www.w3.org/2000/svg">
<g clip-path="url(#clip0_1_230)">
<path d="M69.2535 15.3989C69.1067 15.3417 68.964 15.2726 68.813 15.2288C67.7332 14.9129 66.6544 14.5961 65.5704 14.2962C65.4411 14.2608 65.2592 14.2802 65.1458 14.3484C64.4791 14.7511 63.8232 15.1715 63.1682 15.5935C62.1435 16.2532 61.1314 16.933 60.0951 17.5741C59.4684 17.9616 58.967 17.66 58.9494 16.9271C58.9478 16.8437 58.9411 16.7611 58.9361 16.66C58.3153 16.7527 57.712 16.8901 57.1045 16.9111C56.8192 16.9212 56.4963 16.7527 56.2459 16.5825C56.0131 16.4242 55.8521 16.1571 55.6468 15.923C55.5859 16.0282 55.5167 16.131 55.4649 16.2414C54.9793 17.2927 54.1215 17.687 53.0268 17.6069C52.4202 17.5623 51.796 17.5194 51.2219 17.3382C50.7948 17.2034 50.4393 16.8429 50.0429 16.5969C49.9161 16.5177 49.7517 16.4158 49.6232 16.4377C48.778 16.5817 47.9461 16.6095 47.115 16.3458C47.0132 16.3138 46.853 16.3812 46.7528 16.4512C45.7273 17.163 44.0001 17.0551 43.4044 15.5531C43.2817 15.2439 43.1307 14.9457 42.9772 14.6071C42.5699 15.0611 42.1644 15.4823 41.7948 15.9331C40.9387 16.9777 39.9674 17.8934 38.861 18.66C38.4087 18.9734 38.1259 19.3592 37.9832 19.9194C37.5309 21.697 36.7533 23.3321 35.7795 24.8856C35.1278 25.9251 34.588 27.0371 34.0056 28.1205C33.5458 28.9764 32.8824 29.6124 32.0088 30.016C31.2604 30.3614 30.3942 30.2106 29.9003 29.6461C29.7826 29.5113 29.6983 29.3117 29.6766 29.1314C29.5665 28.2334 29.9512 27.4668 30.3467 26.7036C31.4014 24.6649 32.8716 22.953 34.4662 21.3389C35.3198 20.4754 36.1884 19.6271 37.0478 18.7695C37.1254 18.6929 37.2222 18.6086 37.2489 18.5109C37.4066 17.933 37.546 17.35 37.7179 16.6668C36.9677 17.2641 36.1751 17.1815 35.4015 17.0847C34.5604 16.9802 34.2258 16.5623 34.2167 15.6989C34.205 14.5077 34.2117 13.3164 34.21 12.1252C34.21 11.7748 34.2083 11.4243 34.2083 11.0739C34.2083 10.5221 34.3877 10.2458 34.749 10.2365C35.117 10.2273 35.3031 10.4994 35.3031 11.052C35.3031 12.538 35.3173 14.0249 35.2914 15.5101C35.2847 15.9128 35.4449 15.9979 35.7912 16.0367C36.5105 16.1175 37.0261 15.912 37.4225 15.249C38.0366 14.2229 38.6324 13.2027 38.8326 11.9997C38.8902 11.6518 39.0946 11.4783 39.4384 11.501C39.7522 11.5221 39.9808 11.8034 39.9115 12.1682C39.7363 13.089 39.5294 14.0047 39.3124 14.9171C39.118 15.7309 38.8927 16.5362 38.75 17.3964C39.1372 17.0611 39.5577 16.757 39.9057 16.3846C40.6867 15.548 41.4285 14.6745 42.192 13.8211C42.4022 13.5852 42.5048 13.3485 42.383 13.0241C42.2746 12.736 42.3271 12.4546 42.5291 12.2036C42.5833 12.1362 42.6083 12.025 42.605 11.9348C42.5466 10.1607 42.993 8.46405 43.4094 6.76823C43.658 5.75476 43.9501 4.74639 44.3164 3.77169C44.4866 3.31677 44.8863 2.952 45.1658 2.53584C45.3143 2.31428 45.4186 2.06239 45.5646 1.8383C45.6598 1.69257 45.7724 1.49206 45.9134 1.45416C46.4525 1.30757 47.0023 1.17868 47.5564 1.11297C48.7154 0.976495 49.418 1.70014 49.9954 2.5628C50.34 3.07752 50.4343 3.67902 50.4943 4.30999C50.6754 6.21725 50.3233 8.0445 49.8301 9.86246C49.5122 11.0351 49.2544 12.2289 48.8706 13.3788C48.6486 14.0435 48.2298 14.6408 47.8443 15.372C48.4417 15.34 49.0132 15.3096 49.6032 15.2776C49.6282 13.0814 50.2958 11.0773 50.6729 9.02003C50.9024 7.76817 51.0342 6.49695 51.3037 5.25438C51.5449 4.14236 51.791 3.03372 52.3184 1.98657C52.8866 0.857715 53.8312 0.423861 54.9225 0.224205C55.7286 0.0767789 56.311 0.626046 56.7908 1.20564C57.6803 2.2789 57.989 3.57793 58.1242 4.9351C58.3186 6.89123 57.7587 8.76647 57.5259 10.6763C57.3641 12.0031 56.9936 13.2769 56.4403 14.495C56.3069 14.7899 56.6114 15.3813 56.926 15.4192C57.4225 15.479 57.9223 15.5244 58.4212 15.5379C58.7325 15.5463 58.9327 15.436 58.9736 15.0325C59.0804 13.9609 59.2565 12.8961 59.4059 11.8296C59.4209 11.7234 59.4417 11.6181 59.4693 11.458C59.1388 11.5827 58.8593 11.6948 58.5748 11.7925C58.1776 11.929 57.8955 11.8144 57.7888 11.4875C57.682 11.1607 57.8321 10.9029 58.2185 10.7512C58.3478 10.7007 58.473 10.6207 58.6065 10.6013C59.6578 10.448 60.1093 9.77065 60.3345 8.77909C60.5256 7.93584 60.8886 7.13386 61.1306 6.30068C61.2616 5.84912 61.3158 5.37064 61.37 4.90054C61.4134 4.52566 61.5962 4.29062 61.9183 4.29231C62.237 4.29399 62.499 4.53914 62.4514 4.90477C62.3613 5.59469 62.2504 6.28802 62.0676 6.95694C61.8373 7.80018 61.5269 8.62157 61.2482 9.46062C61.8857 9.27951 62.4815 9.10851 63.0789 8.94339C63.1991 8.91051 63.3242 8.88947 63.4477 8.88187C63.774 8.86251 63.9934 9.0209 64.041 9.34354C64.0919 9.68895 63.9041 9.87849 63.5754 9.9804C62.7426 10.2382 61.9116 10.5036 61.0922 10.8009C60.932 10.8591 60.7467 11.0613 60.7142 11.2255C60.4739 12.4454 60.2369 13.6686 60.0734 14.9011C60.0233 15.2827 60.206 15.6955 60.2778 16.0737C61.4835 15.3223 62.7151 14.5548 63.9567 13.7806C63.3117 13.2592 63.3718 12.9382 64.0168 12.4984C65.0381 11.8009 66.0135 11.0351 67.0031 10.2929C67.2593 10.1009 67.4963 9.88268 67.7466 9.68221C67.9644 9.50866 68.2022 9.27951 68.4884 9.4741C68.7904 9.67884 69.1134 9.89702 69.1309 10.3401C69.1726 11.3923 68.6277 12.1134 67.8325 12.6855C67.4612 12.9525 67.0674 13.1884 66.5901 13.4992C67.1801 13.6576 67.679 13.7874 68.1755 13.9263C68.6694 14.0645 69.1693 14.1901 69.6524 14.3602C70.1055 14.5194 70.3024 14.8775 70.3366 15.3619C70.3725 15.8732 70.2507 16.3265 69.7659 16.5093C68.9515 16.8159 68.1221 17.1158 67.2726 17.2843C66.1178 17.5134 64.938 17.6196 63.7682 17.7712C63.4411 17.8134 63.1674 17.6036 63.144 17.297C63.1165 16.9465 63.29 16.7274 63.633 16.6836C64.4732 16.5758 65.3218 16.5202 66.1554 16.3728C67.0424 16.2161 67.916 15.9844 68.7913 15.7688C68.9607 15.7266 69.1109 15.607 69.2694 15.5228L69.2535 15.4015V15.3989ZM55.5492 13.3762C55.5892 13.3796 55.6285 13.383 55.6685 13.3863C55.8471 12.7326 56.0648 12.0865 56.1959 11.4235C56.3928 10.4235 56.5163 9.40925 56.6932 8.4059C56.9711 6.83139 57.1805 5.26025 56.7157 3.68239C56.4754 2.86691 56.1817 2.08682 55.4641 1.56536C55.3665 1.49459 55.2196 1.45079 55.1003 1.46005C54.8975 1.4769 54.7015 1.56115 54.4987 1.58895C53.9663 1.66308 53.6092 2.06155 53.6409 2.60997C53.7077 3.754 53.7895 4.89803 53.8695 6.0412C53.9229 6.8078 53.8762 7.60309 54.064 8.33599C54.4979 10.0326 55.0469 11.699 55.5492 13.3771V13.3762ZM52.6288 5.1204C52.6004 5.10947 52.572 5.0985 52.5437 5.08757C52.4953 5.29818 52.4394 5.50794 52.3985 5.72106C51.9754 7.95943 51.5415 10.1953 51.141 12.4378C50.9817 13.3299 50.859 14.233 50.7931 15.137C50.743 15.8227 50.9591 16.0914 51.64 16.2144C52.2733 16.329 52.9266 16.3383 53.5716 16.3753C53.7127 16.3838 53.9263 16.3602 53.9914 16.2675C54.3126 15.8143 54.6522 15.3568 54.8608 14.8497C54.9359 14.6669 54.6622 14.34 54.5546 14.0763C54.497 13.934 54.4536 13.7865 54.4069 13.64C54.1541 12.8422 53.8795 12.0511 53.6568 11.2449C53.353 10.1447 53.0234 9.04531 52.8274 7.92405C52.6672 7.00662 52.6872 6.05723 52.6279 5.12209L52.6288 5.1204ZM45.6105 3.96292C45.568 3.95365 45.5263 3.94523 45.4837 3.93596C45.2718 4.4886 44.9889 5.02523 44.8604 5.59638C44.4832 7.27198 44.0902 8.95013 43.8508 10.6476C43.6497 12.0747 43.6831 13.5195 44.3865 14.8657C44.8054 15.6677 44.8512 15.7342 45.7157 15.6433C46.0603 15.607 46.5017 15.1504 46.465 14.8724C46.3949 14.3493 46.3023 13.827 46.2631 13.3013C46.1212 11.3645 45.9944 9.42692 45.87 7.48851C45.8025 6.42787 45.7541 5.36558 45.6906 4.3041C45.684 4.18869 45.6373 4.07581 45.6097 3.96208L45.6105 3.96292ZM47.4404 13.5068C47.4729 13.517 47.5063 13.5262 47.5388 13.5363C47.6423 13.2996 47.7775 13.0713 47.8443 12.8245C48.163 11.64 48.4809 10.4547 48.7638 9.26098C49.075 7.94509 49.4831 6.64186 49.3537 5.25775C49.2869 4.54251 49.4071 3.79443 48.9757 3.14492C48.6294 2.6243 48.2189 2.22077 47.5322 2.26963C47.1275 2.29827 46.7412 2.53078 46.7495 2.75993C46.7604 3.03962 46.7737 3.31846 46.7921 3.5973C46.9181 5.5349 47.0466 7.47335 47.1734 9.41094C47.2627 10.7757 47.3511 12.1413 47.4404 13.506V13.5068ZM36.5789 20.9219L36.4328 20.8192C36.2626 21.0163 36.1024 21.2227 35.9205 21.4088C34.3326 23.0356 32.7306 24.6531 31.62 26.674C31.2987 27.2579 31.0159 27.8703 30.7906 28.4971C30.6279 28.9486 30.8415 29.1483 31.3188 29.0775C31.4656 29.0556 31.6125 28.9924 31.7435 28.9183C32.2733 28.6176 32.7031 28.2149 33.0051 27.6715C33.8796 26.0978 34.7774 24.5376 35.6352 22.9547C35.9906 22.2993 36.2668 21.6001 36.5789 20.9211V20.9219ZM67.8693 11.1725C67.8401 11.1388 67.81 11.1051 67.7808 11.0722C67.4813 11.3325 67.1809 11.5937 66.8813 11.854C66.9155 11.8927 66.9498 11.9323 66.9839 11.9711C67.2793 11.7049 67.5739 11.4387 67.8693 11.1725Z" fill="white"/>
</g>
<defs>
<clipPath id="clip0_1_230">
<rect width="40.6849" height="30" fill="white" transform="translate(29.6575 0.199951)"/>
</clipPath>
</defs>
</svg>
