<svg width="26" height="31" viewBox="0 0 26 31" fill="none" xmlns="http://www.w3.org/2000/svg">
<g clip-path="url(#clip0_1_197)">
<path d="M7.13591 5.2603L7.78124 5.6011L11.4716 7.15208C11.805 7.33436 12.1757 7.43799 12.5553 7.45495C12.9348 7.4719 13.3133 7.40173 13.6616 7.2499C14.4859 6.92101 15.3288 6.64074 16.186 6.4105L15.801 5.92612C14.9001 6.22274 14.0261 6.4957 13.163 6.79866C12.8047 6.95205 12.4009 6.96053 12.0365 6.82227C11.7588 6.70712 8.96298 5.52063 7.36946 4.84219C6.74936 4.57712 6.31231 4.39095 6.27444 4.36886C5.59127 4.03911 5.85634 3.47584 6.29654 3.31175C6.45431 3.24864 9.34007 2.15051 10.6212 1.68349C11.4369 1.38686 12.2589 1.1076 13.0794 0.828339C13.1741 0.796783 13.7105 0.564852 14.5625 0.957715C15.7269 1.4989 16.9292 1.95644 18.1093 2.46133C18.5968 2.66959 19.0796 2.88733 19.564 3.10191L20.4476 3.48688C20.9793 3.71566 21.1228 4.32152 20.4476 4.52664C19.9916 4.66548 19.3605 4.8627 19.0276 4.96683C19.3211 5.31394 19.5688 5.62161 19.8291 5.91349C20.2756 6.42469 20.8262 7.18677 20.8988 7.29718C21.0802 7.57488 20.9272 7.85734 20.6132 7.85571H20.4791C20.9619 8.84499 21.4968 10.0299 21.9906 11.3363C22.2226 10.5474 22.737 10.5474 23.0667 10.6247C23.6331 10.7589 23.7404 11.5951 23.7198 12.709C23.7056 13.4757 23.9991 14.14 24.474 14.525C24.8574 14.8406 25.6416 15.7509 25.0641 16.472C24.9625 16.5969 24.83 16.6932 24.6797 16.7513C24.5295 16.8094 24.3667 16.8273 24.2074 16.8033C24.4819 17.6584 25.0373 19.7269 24.5229 21.221C24.2673 21.9657 23.9628 21.8442 23.6867 21.4151C23.5479 22.7673 23.133 25.2018 21.9133 26.6959C21.3327 27.4027 20.9762 27.2939 20.8089 26.8111C17.516 29.5375 12.6234 29.2993 12.6234 29.2993C9.05448 29.2046 6.7257 28.1948 5.19841 26.8931C5.01697 27.3033 4.66985 27.3665 4.12394 26.6959C3.11101 25.4605 2.65346 23.5688 2.44835 22.1866C2.39313 21.9436 2.35053 21.7133 2.3174 21.5176C2.31663 21.5035 2.31663 21.4893 2.3174 21.4751C2.05076 21.8537 1.7636 21.9295 1.52062 21.221C1.00469 19.7221 1.56007 17.6537 1.83617 16.8033C1.67689 16.8273 1.51409 16.8094 1.36384 16.7513C1.2136 16.6932 1.08111 16.5969 0.979456 16.472C0.40199 15.7509 1.18614 14.8327 1.56954 14.525C2.04287 14.14 2.3379 13.4757 2.3237 12.709C2.30319 11.5951 2.41048 10.7589 2.9769 10.6247C3.28299 10.5506 3.74684 10.549 3.99771 11.1754C4.62882 9.5976 5.29623 8.19966 5.84688 7.12677C6.21168 6.44207 6.66119 5.80597 7.18483 5.23348L6.85509 5.00312C6.32765 5.5956 5.87169 6.248 5.49659 6.9469C4.87811 8.15075 4.34956 9.28521 3.88886 10.3944C3.7432 10.2965 3.57792 10.2317 3.40458 10.2044C3.23125 10.1772 3.05405 10.1882 2.8854 10.2366C2.00816 10.4465 1.90874 11.5509 1.92926 12.7137C1.9403 13.3353 1.71311 13.8971 1.3234 14.2141C0.673356 14.7348 -0.0366424 15.8314 0.671777 16.7165C0.836918 16.9254 1.06389 17.0767 1.32024 17.1488C1.00468 18.2833 0.689137 19.9998 1.14985 21.3489C1.21138 21.5303 1.40071 22.0825 1.86142 22.1488C1.92159 22.1575 1.98271 22.1575 2.04287 22.1488C2.28112 23.684 2.75759 25.6451 3.82732 26.9499C4.22176 27.4233 4.58465 27.6394 4.93176 27.5905C5.05166 27.5739 5.16523 27.5266 5.26151 27.4533C7.08067 28.8606 9.5515 29.6163 12.606 29.6968C12.636 29.6968 12.7638 29.6968 12.9642 29.6968C14.1302 29.6968 17.8553 29.5186 20.711 27.3869C20.8132 27.4877 20.9437 27.5548 21.085 27.5795C21.4463 27.6442 21.8186 27.4359 22.221 26.9484C23.316 25.6136 23.7988 23.5735 23.9991 22.1456C24.0577 22.1551 24.1173 22.1551 24.1758 22.1456C24.6492 22.0888 24.8385 21.5287 24.9 21.3457C25.3734 19.9951 25.0483 18.2785 24.7312 17.1441C24.9872 17.0713 25.2136 16.9194 25.3781 16.7102C26.0865 15.8266 25.3781 14.7316 24.728 14.2094C24.3368 13.8939 24.1096 13.3306 24.1206 12.709C24.1427 11.5462 24.0418 10.4417 23.1629 10.2318C22.978 10.1765 22.7823 10.1674 22.593 10.2054C22.4037 10.2433 22.2267 10.3272 22.0774 10.4496C21.7619 9.68597 21.429 8.90812 21.0566 8.12551C21.155 8.06192 21.2358 7.97453 21.2917 7.87149C21.3551 7.74738 21.3834 7.60821 21.3734 7.46916C21.3633 7.33005 21.3155 7.19642 21.2349 7.08262C21.1481 6.9501 20.5833 6.17226 20.1304 5.65475C19.9916 5.49697 19.8559 5.33919 19.7139 5.16405L20.5691 4.90057C21.0077 4.76646 21.2807 4.46511 21.3011 4.09275C21.3232 3.69199 21.0519 3.31175 20.6101 3.12242L19.22 2.51182C18.9045 2.36982 18.5889 2.2294 18.2734 2.09372C17.8395 1.90911 17.3977 1.72767 16.9702 1.55096C16.2318 1.24961 15.4697 0.937204 14.7376 0.604293C14.1874 0.324573 13.5493 0.272439 12.9611 0.459141C12.1217 0.746295 11.2997 1.02555 10.495 1.31745C9.29428 1.75607 6.68782 2.74849 6.16873 2.94728C5.98089 3.01002 5.81525 3.12579 5.69178 3.28062C5.5683 3.43545 5.4923 3.62271 5.47295 3.8198C5.47295 3.99651 5.5108 4.43828 6.11351 4.72858C6.14191 4.74279 6.27129 4.79643 6.82665 5.04414L7.13591 5.2603Z" fill="white"/>
<path d="M23.3868 15.0473C23.366 15.0634 23.3409 15.0732 23.3146 15.0754C23.2882 15.0777 23.2619 15.0723 23.2385 15.0599C23.0718 14.9729 22.925 14.8519 22.8078 14.7049C22.6882 14.5568 22.5982 14.3869 22.5427 14.2047C22.487 14.0266 22.4604 13.8407 22.4638 13.654C22.4655 13.469 22.5002 13.2857 22.5664 13.1129C22.5776 13.0843 22.5983 13.0605 22.625 13.0454C22.6517 13.0302 22.6827 13.0246 22.713 13.0296C22.7433 13.0346 22.7709 13.0498 22.7913 13.0727C22.8118 13.0956 22.8237 13.1248 22.8251 13.1554V13.1728C22.8251 13.3211 22.8441 13.4884 22.8646 13.6351C22.8836 13.7837 22.9153 13.9305 22.9593 14.0738C23.0021 14.2144 23.0615 14.3494 23.136 14.4761C23.2137 14.606 23.3024 14.729 23.4011 14.8437L23.4105 14.8579C23.4323 14.8862 23.442 14.922 23.4376 14.9575C23.4332 14.9929 23.415 15.0252 23.3868 15.0473Z" fill="white"/>
<path d="M20.2563 7.41067L20.1648 7.39332C19.8761 7.33965 19.4154 7.23556 19.286 7.21821C19.0257 7.1693 18.9815 7.21821 18.8963 7.4706C18.8111 7.72306 18.6975 7.97865 18.565 8.29267C18.5461 8.33369 18.5066 8.49934 18.3883 8.35104C17.6688 7.45482 16.9998 6.61548 16.3119 5.75875C17.1166 5.51103 17.6531 5.38166 18.5066 5.14185C18.9721 5.75717 20.1617 6.93419 20.37 7.30815C20.4189 7.39488 20.3873 7.44067 20.2563 7.41067Z" fill="white"/>
<path d="M19.9967 10.8013C18.9286 10.7351 14.9163 10.4589 13.2849 10.4747C11.6535 10.4905 6.85385 10.7351 5.78573 10.8013C5.70877 10.8109 5.63109 10.7903 5.56901 10.7438C5.50694 10.6973 5.46528 10.6286 5.45282 10.5521C5.45075 10.4895 5.47034 10.4282 5.50829 10.3785C5.54624 10.3287 5.60022 10.2936 5.66108 10.2791C6.18332 10.1213 10.4906 9.59436 13.0766 9.59436C15.0946 9.59436 19.607 10.1229 20.1292 10.2791C20.1901 10.2936 20.2441 10.3287 20.282 10.3785C20.32 10.4282 20.3396 10.4895 20.3375 10.5521C20.3251 10.6301 20.2823 10.7002 20.2185 10.7469C20.1546 10.7936 20.0749 10.8131 19.9967 10.8013Z" fill="white"/>
<path d="M17.5509 11.4011C17.5451 11.3119 17.5564 11.2225 17.584 11.1376C18.3161 11.1376 18.8968 11.1896 19.1808 11.2196C19.1947 11.2918 19.1995 11.3655 19.195 11.4389C19.195 11.8129 18.8132 12.1079 18.3587 12.0969C17.9043 12.0858 17.5367 11.775 17.5509 11.4011Z" fill="white"/>
<path d="M7.07793 11.4389C7.07337 11.3655 7.07819 11.2918 7.09208 11.2196C7.37611 11.1896 7.9568 11.1407 8.68887 11.1376C8.71652 11.2225 8.72774 11.3119 8.722 11.4011C8.722 11.775 8.36702 12.0874 7.91415 12.0969C7.46135 12.1064 7.08576 11.8129 7.07793 11.4389Z" fill="white"/>
<path d="M3.46881 14.2049C3.41338 14.3871 3.32339 14.5569 3.20374 14.7051C3.08648 14.8521 2.93976 14.973 2.773 15.0601C2.74114 15.077 2.70391 15.0807 2.66937 15.0703C2.63483 15.06 2.60573 15.0364 2.58838 15.0049C2.57553 14.982 2.56985 14.9557 2.57211 14.9295C2.57436 14.9034 2.58442 14.8785 2.60099 14.8581L2.61048 14.8439C2.70914 14.7291 2.79781 14.6061 2.87554 14.4763C2.95008 14.3496 3.0094 14.2146 3.05226 14.074C3.09621 13.9307 3.12789 13.7839 3.14694 13.6353C3.16745 13.4775 3.1785 13.3197 3.18639 13.173V13.1556C3.1874 13.138 3.19186 13.1207 3.19955 13.1049C3.20723 13.089 3.21798 13.0748 3.23117 13.063C3.24436 13.0513 3.25975 13.0423 3.27643 13.0365C3.29311 13.0307 3.31076 13.0283 3.32838 13.0294C3.35371 13.031 3.3781 13.0397 3.39874 13.0545C3.41938 13.0693 3.43544 13.0896 3.44513 13.113C3.51134 13.2859 3.54608 13.4691 3.5477 13.6542C3.55118 13.8408 3.52454 14.0268 3.46881 14.2049Z" fill="white"/>
<path d="M12.9026 26.737H12.8552C5.05469 26.5791 5.53277 19.9525 5.53277 19.9525C5.58326 16.6628 8.11561 14.88 10.659 13.9964L10.8088 13.9412C11.4163 13.7235 11.3105 13.3763 10.8404 13.3322L10.4791 13.2959C10.3325 13.2908 10.1919 13.2363 10.0802 13.1412C9.96843 13.0461 9.89213 12.916 9.86376 12.7721C9.80559 12.5765 9.79972 12.3691 9.8468 12.1707C9.89389 11.9721 9.99217 11.7894 10.1319 11.6408C10.6952 11.0333 11.552 11.0002 12.2777 11.554C12.3677 11.6218 12.4608 11.6881 12.5538 11.7528C12.6527 11.82 12.7696 11.856 12.8891 11.856C13.0087 11.856 13.1255 11.82 13.2244 11.7528C13.319 11.6913 13.4106 11.6218 13.5005 11.554C14.2247 11.0002 15.0783 11.0333 15.6463 11.6408C15.7854 11.7898 15.8833 11.9725 15.9303 12.1709C15.9773 12.3692 15.9719 12.5764 15.9145 12.7721C15.8861 12.916 15.8098 13.0461 15.6981 13.1412C15.5864 13.2363 15.4458 13.2908 15.2992 13.2959L14.9379 13.3322C14.4645 13.3763 14.4266 13.7597 14.9947 13.9459L15.1193 13.987C17.6627 14.869 20.195 16.6692 20.2455 19.9525C20.2455 19.9525 20.7251 26.5949 12.9026 26.737ZM13.8366 12.7815C14.211 12.7484 14.5811 12.6771 14.941 12.5685C14.9773 12.5591 15.1335 12.4707 15.1177 12.3461C15.0578 11.9548 14.6807 11.95 14.4267 12.021C14.1435 12.0929 13.889 12.2498 13.6978 12.4707C13.4863 12.7484 13.6741 12.8005 13.8366 12.7815ZM14.9111 21.9105C14.5955 21.931 14.2894 21.9831 13.9786 21.9988C13.8539 21.9988 13.7293 22.0099 13.6046 22.0115C13.2102 22.0115 12.8852 21.9973 12.7227 21.991C12.4892 21.9815 12.2493 21.972 12.1625 21.9657C12.0048 21.9547 11.8565 21.9374 11.7034 21.9184C11.3973 21.8805 11.0975 21.8064 10.7899 21.7606C10.741 21.7606 10.6937 21.8064 10.6826 21.8774C10.6773 21.9021 10.6791 21.9278 10.6877 21.9515C10.6964 21.9752 10.7116 21.996 10.7315 22.0115C10.8742 22.0896 11.025 22.152 11.1812 22.1977C11.339 22.2434 11.4967 22.2797 11.6435 22.3113C11.7902 22.3428 11.959 22.3649 12.1168 22.3838C12.2746 22.4028 12.8536 22.4233 13.0145 22.4249C13.1755 22.4265 13.3301 22.4391 13.4879 22.4249C13.6457 22.4107 13.8034 22.4075 13.9612 22.3855C14.119 22.3633 14.2768 22.3397 14.4345 22.305C14.5972 22.2682 14.7557 22.2154 14.9079 22.1472C14.9303 22.134 14.9488 22.1151 14.9613 22.0923C14.9738 22.0695 14.9799 22.0438 14.9789 22.0178C14.9994 21.9626 14.9615 21.9058 14.9111 21.9105ZM17.456 20.2728C17.1491 20.1073 16.826 19.9735 16.4919 19.8736C16.1638 19.7758 15.8325 19.6969 15.4995 19.6259C15.1667 19.5549 14.8306 19.5044 14.4945 19.4682C14.1585 19.4318 12.9167 19.3671 12.5838 19.3592C12.2509 19.3513 11.9054 19.323 11.5646 19.3324C11.2238 19.3419 10.8845 19.3609 10.5438 19.4019C10.203 19.4429 9.86376 19.4886 9.5245 19.5597C9.17872 19.6285 8.84056 19.731 8.51474 19.8657C8.46824 19.8933 8.43002 19.9329 8.4042 19.9804C8.37837 20.0279 8.36585 20.0815 8.368 20.1355C8.368 20.2933 8.45161 20.4022 8.55733 20.3959C9.22157 20.3596 9.88111 20.2586 10.5406 20.2381C10.8073 20.2287 11.0723 20.2223 11.339 20.2207C12.172 20.2412 12.8647 20.2712 13.2133 20.2854C13.7103 20.3107 14.2342 20.3391 14.4108 20.3533C14.739 20.3801 15.0641 20.4211 15.3907 20.4637C16.0439 20.5505 16.686 20.7114 17.3408 20.8092C17.4465 20.825 17.5459 20.7162 17.5633 20.5678C17.5766 20.5136 17.5735 20.4565 17.5544 20.404C17.5353 20.3515 17.501 20.3059 17.456 20.2728ZM12.0805 12.4707C11.8892 12.2498 11.6348 12.0929 11.3516 12.021C11.0975 11.95 10.7205 11.9548 10.659 12.3461C10.6447 12.4707 10.8009 12.5591 10.8373 12.5685C11.1971 12.6771 11.5672 12.7484 11.9417 12.7815C12.1042 12.8005 12.2919 12.7484 12.0805 12.4707Z" fill="white"/>
</g>
<defs>
<clipPath id="clip0_1_197">
<rect width="25.4348" height="30" fill="white" transform="translate(0.282608 0.199951)"/>
</clipPath>
</defs>
</svg>
