<svg width="490" height="84" viewBox="0 0 490 84" fill="none" xmlns="http://www.w3.org/2000/svg">
<path d="M24.8165 10.2809L24.2624 9.31324C24.0761 8.98899 23.6344 8.93026 23.3688 9.19324L22.105 10.4571C21.9135 10.6486 21.8854 10.9473 22.0335 11.1719C22.4956 11.8792 22.8659 12.64 23.1339 13.4392H23.1365C23.4786 14.4528 23.6573 15.5277 23.6573 16.6102C23.6573 22.0843 19.202 26.5396 13.728 26.5396C12.0812 26.5396 10.4982 26.1439 9.07351 25.3856L11.2156 23.2434C12.0148 23.5473 12.8676 23.703 13.728 23.703C17.6395 23.703 20.8207 20.5217 20.8207 16.6102C20.8207 16.3651 20.8054 16.12 20.7799 15.8775C20.6956 15.0553 20.4684 14.2587 20.111 13.5209C19.9399 13.1685 19.4752 13.0894 19.1969 13.3651L17.9127 14.6494C17.7748 14.7873 17.7161 14.989 17.762 15.1804L17.8693 15.64C17.9433 15.9617 17.9816 16.2885 17.9816 16.6128C17.9816 18.9592 16.0718 20.869 13.7254 20.869C12.9876 20.869 12.2573 20.6749 11.619 20.3098L11.0548 19.9856C10.8327 19.8579 10.5518 19.8962 10.3705 20.0775L5.13907 25.309C4.89651 25.5515 4.92204 25.9524 5.19524 26.1592L5.9663 26.749C8.21053 28.4698 10.8939 29.3787 13.7254 29.3787C20.7646 29.3787 26.4914 23.6519 26.4914 16.6128C26.4914 14.3915 25.9118 12.2009 24.8114 10.2809H24.8165Z" fill="white"/>
<path d="M21.4898 6.47671C19.2455 4.75586 16.5621 3.84692 13.7307 3.84692C6.69153 3.84692 0.964722 9.57373 0.964722 16.6129C0.964722 18.8367 1.5443 21.0248 2.64472 22.9448L3.19877 23.9125C3.38515 24.2367 3.82685 24.2954 4.09238 24.0325L5.35621 22.7686C5.5477 22.5771 5.57579 22.2784 5.4277 22.0537C4.96557 21.3465 4.59536 20.5857 4.32728 19.7865H4.32472C3.9826 18.7729 3.80387 17.698 3.80387 16.6154C3.80132 11.1389 8.25661 6.68352 13.7307 6.68352C15.3775 6.68352 16.9604 7.07926 18.3851 7.83756L16.243 9.97969C15.4438 9.67586 14.5911 9.52011 13.7307 9.52011C9.81916 9.52011 6.63791 12.7014 6.63791 16.6129C6.63791 16.7303 6.66855 17.2691 6.67877 17.361C6.76557 18.1754 6.99281 18.9695 7.3477 19.7023C7.51877 20.0546 7.98345 20.1337 8.26172 19.858L9.54342 18.5763C9.68129 18.4384 9.74001 18.2367 9.69406 18.0452L9.58682 17.5857C9.51278 17.264 9.47448 16.9371 9.47448 16.6129C9.47448 14.2665 11.3843 12.3567 13.7307 12.3567C14.4685 12.3567 15.1987 12.5508 15.837 12.9159L16.4013 13.2401C16.6234 13.3678 16.9043 13.3295 17.0855 13.1482L22.317 7.91671C22.5596 7.67416 22.5341 7.2733 22.2609 7.0665L21.4898 6.47671Z" fill="white"/>
<path d="M42.9928 20.1336C42.8013 19.9728 42.5384 19.9804 42.3213 20.149C41.4992 20.7847 40.5494 21.3745 39.1579 21.3745C36.6124 21.3745 34.5418 19.2298 34.5418 16.5924C34.5418 13.9549 36.6047 11.7924 39.1401 11.7924C40.243 11.7924 41.4303 12.2545 42.306 13.023C42.4643 13.1813 42.6098 13.2068 42.7043 13.2017C42.7911 13.1966 42.9162 13.1583 43.0311 13.0153L43.8584 12.1626C43.9656 12.0528 44.0243 11.9124 44.0192 11.7668C44.0141 11.6213 43.9477 11.4834 43.8303 11.3762C42.3877 10.1175 40.935 9.55579 39.1196 9.55579C35.2439 9.55579 32.0907 12.7294 32.0907 16.6281C32.0907 20.5268 35.2439 23.6621 39.1196 23.6621C40.9426 23.6621 42.5818 23.0034 43.8584 21.7575C43.9681 21.6477 44.0294 21.4894 44.0243 21.3336C44.0192 21.1983 43.9656 21.0783 43.8762 20.9992L42.9928 20.1285V20.1336Z" fill="white"/>
<path d="M49.0184 9.74988H47.7648C47.4814 9.74988 47.2338 10.0001 47.2338 10.2835V22.9422C47.2338 23.2256 47.4814 23.4758 47.7648 23.4758H49.0184C49.3018 23.4758 49.5495 23.2256 49.5495 22.9422V10.2835C49.5495 10.0001 49.3018 9.74988 49.0184 9.74988Z" fill="white"/>
<path d="M63.8571 14.0137C63.8571 11.6622 61.9218 9.74988 59.5448 9.74988H54.3771C54.0835 9.74988 53.8461 9.98988 53.8461 10.2835V22.9422C53.8461 23.2358 54.0861 23.4758 54.3771 23.4758H55.6129C55.8963 23.4758 56.1439 23.2256 56.1439 22.9422V18.2367H58.7354L61.2146 23.2078C61.2784 23.3354 61.4495 23.4733 61.6716 23.4733H63.1525C63.3567 23.4733 63.5278 23.3814 63.6222 23.2205C63.7193 23.0571 63.7218 22.8452 63.6248 22.6665L61.1099 17.9737C62.8078 17.218 63.8546 15.7141 63.8546 14.0086L63.8571 14.0137ZM61.5388 14.052C61.5388 15.2443 60.5559 16.2529 59.3916 16.2529H56.1797V11.9456H59.3916C60.5559 11.9456 61.5388 12.9082 61.5388 14.0495V14.052Z" fill="white"/>
<path d="M77.3589 20.1336C77.1674 19.9728 76.9043 19.9804 76.6873 20.149C75.8653 20.7847 74.9149 21.3745 73.5234 21.3745C70.9781 21.3745 68.9075 19.2298 68.9075 16.5924C68.9075 13.9549 70.9705 11.7924 73.5057 11.7924C74.6086 11.7924 75.7958 12.2545 76.6717 13.023C76.8298 13.1813 76.9759 13.2068 77.0703 13.2017C77.1568 13.1966 77.2823 13.1583 77.3972 13.0153L78.2242 12.1626C78.3312 12.0528 78.3901 11.9124 78.3851 11.7668C78.3802 11.6213 78.3135 11.4834 78.1958 11.3762C76.7532 10.1175 75.3007 9.55579 73.4851 9.55579C69.6096 9.55579 66.4564 12.7294 66.4564 16.6281C66.4564 20.5268 69.6096 23.6621 73.4851 23.6621C75.3085 23.6621 76.9476 23.0034 78.2242 21.7575C78.3341 21.6477 78.3951 21.4894 78.3901 21.3336C78.3851 21.1983 78.3312 21.0783 78.2419 20.9992L77.3589 20.1285V20.1336Z" fill="white"/>
<path d="M88.8966 21.3567H83.9207V10.2835C83.9207 10.0001 83.6725 9.74988 83.3895 9.74988H82.1356C81.842 9.74988 81.6044 9.98988 81.6044 10.2835V22.9422C81.6044 23.2358 81.8448 23.4758 82.1356 23.4758H88.8994C89.193 23.4758 89.4327 23.2358 89.4327 22.9422V21.8903C89.4327 21.5967 89.193 21.3567 88.8994 21.3567H88.8966Z" fill="white"/>
<path d="M100.161 11.8895C100.455 11.8895 100.692 11.6495 100.692 11.3559V10.2861C100.692 9.99244 100.453 9.75244 100.161 9.75244H92.5604C92.2668 9.75244 92.0292 9.99244 92.0292 10.2861V22.9448C92.0292 23.2384 92.2696 23.4784 92.5604 23.4784H100.161C100.455 23.4784 100.692 23.2384 100.692 22.9448V21.8929C100.692 21.5993 100.453 21.3593 100.161 21.3593H94.3299V17.5908H99.232C99.5256 17.5908 99.7632 17.3508 99.7632 17.0571V15.9874C99.7632 15.704 99.515 15.4537 99.232 15.4537H94.3299V11.8946H100.161V11.8895Z" fill="white"/>
<path d="M173.117 17.7699C173.117 22.3967 169.444 25.8061 164.936 25.8061C160.429 25.8061 156.756 22.3967 156.756 17.7699C156.756 13.1105 160.429 9.73364 164.936 9.73364C169.444 9.73364 173.117 13.1105 173.117 17.7699ZM169.536 17.7699C169.536 14.8785 167.407 12.9003 164.936 12.9003C162.466 12.9003 160.337 14.8785 160.337 17.7699C160.337 20.6322 162.466 22.6395 164.936 22.6395C167.407 22.6395 169.536 20.6285 169.536 17.7699Z" fill="white"/>
<path d="M190.762 17.7699C190.762 22.3967 187.089 25.8061 182.582 25.8061C178.075 25.8061 174.402 22.3967 174.402 17.7699C174.402 13.114 178.075 9.73364 182.582 9.73364C187.089 9.73364 190.762 13.1105 190.762 17.7699ZM187.181 17.7699C187.181 14.8785 185.052 12.9003 182.582 12.9003C180.111 12.9003 177.983 14.8785 177.983 17.7699C177.983 20.6322 180.111 22.6395 182.582 22.6395C185.052 22.6395 187.181 20.6285 187.181 17.7699Z" fill="white"/>
<path d="M207.673 10.2192V24.6467C207.673 30.5814 204.121 33.0054 199.923 33.0054C195.971 33.0054 193.592 30.4003 192.695 28.2699L195.812 26.9909C196.368 28.2988 197.728 29.8424 199.919 29.8424C202.607 29.8424 204.272 28.2083 204.272 25.1322V23.9764H204.147C203.346 24.951 201.801 25.8025 199.853 25.8025C195.776 25.8025 192.04 22.3025 192.04 17.7988C192.04 13.2626 195.776 9.73364 199.853 9.73364C201.798 9.73364 203.342 10.5851 204.147 11.5307H204.272V10.2228H207.673V10.2192ZM204.526 17.7988C204.526 14.9692 202.61 12.9003 200.173 12.9003C197.702 12.9003 195.632 14.9692 195.632 17.7988C195.632 20.5996 197.702 22.6395 200.173 22.6395C202.61 22.6395 204.526 20.5996 204.526 17.7988Z" fill="white"/>
<path d="M213.28 1.76245V25.3132H209.787V1.76245H213.28Z" fill="white"/>
<path d="M226.891 20.4144L229.671 22.2404C228.774 23.5485 226.612 25.8021 222.876 25.8021C218.244 25.8021 214.785 22.273 214.785 17.7659C214.785 12.9869 218.274 9.72961 222.476 9.72961C226.707 9.72961 228.777 13.0485 229.454 14.8419L229.825 15.755L218.924 20.2043C219.759 21.8166 221.057 22.639 222.876 22.639C224.7 22.639 225.965 21.755 226.891 20.4144ZM218.336 17.523L225.623 14.5412C225.222 13.5376 224.016 12.8384 222.597 12.8384C220.777 12.8384 218.244 14.4217 218.336 17.523Z" fill="white"/>
<path d="M143.534 15.6803V12.2708H155.192C155.306 12.8651 155.365 13.5679 155.365 14.3288C155.365 16.8868 154.656 20.0498 152.369 22.3034C150.144 24.586 147.303 25.8034 143.538 25.8034C136.56 25.8034 130.692 20.202 130.692 13.3252C130.692 6.44837 136.56 0.846924 143.538 0.846924C147.398 0.846924 150.148 2.33968 152.214 4.28533L149.773 6.69113C148.291 5.32157 146.284 4.25635 143.534 4.25635C138.439 4.25635 134.453 8.30344 134.453 13.3252C134.453 18.347 138.439 22.394 143.534 22.394C146.839 22.394 148.722 21.086 149.928 19.8977C150.906 18.9338 151.549 17.5571 151.803 15.6767L143.534 15.6803Z" fill="white"/>
<path d="M267.47 8.36036H268.616V25.7228C268.616 29.5671 265.61 32.1612 259.825 32.1612V28.5103C262.309 28.5103 263.55 27.4856 263.55 25.4022V8.36036H267.47ZM264.105 5.54062C263.842 5.28836 263.632 4.98691 263.489 4.65404C263.346 4.32114 263.272 3.96354 263.272 3.60229C263.272 3.24103 263.346 2.88343 263.489 2.55054C263.632 2.21764 263.842 1.91621 264.105 1.66395C264.363 1.40535 264.67 1.19985 265.01 1.05953C265.35 0.919212 265.714 0.846924 266.083 0.846924C266.452 0.846924 266.816 0.919212 267.156 1.05953C267.496 1.19985 267.803 1.40535 268.061 1.66395C268.324 1.91621 268.534 2.21764 268.677 2.55054C268.82 2.88343 268.894 3.24103 268.894 3.60229C268.894 3.96354 268.82 4.32114 268.677 4.65404C268.534 4.98691 268.324 5.28836 268.061 5.54062C267.803 5.79922 267.496 6.00473 267.156 6.14504C266.816 6.28536 266.452 6.35764 266.083 6.35764C265.714 6.35764 265.35 6.28536 265.01 6.14504C264.67 6.00473 264.363 5.79922 264.105 5.54062Z" fill="white"/>
<path d="M283.284 8.3595H288.351V24.7921H283.284V22.3899C282.517 23.2634 281.563 23.9606 280.49 24.4319C279.417 24.9032 278.251 25.137 277.076 25.1167C273.283 25.1167 270.766 22.8111 270.766 18.4867V8.36329H275.835V16.5968C275.835 19.4429 276.979 20.8889 279.3 20.8889C281.523 20.8889 283.286 19.1906 283.286 15.8263L283.284 8.3595Z" fill="white"/>
<path d="M319.962 14.6812V24.8026H314.898V16.4098C314.898 13.6547 313.819 12.2776 311.661 12.2789C309.57 12.2789 307.772 14.0076 307.772 17.3397V24.8026H302.705V16.4098C302.705 13.6547 301.627 12.2776 299.47 12.2789C297.379 12.2789 295.581 14.0076 295.581 17.3397V24.8026H290.515V8.36997H295.581V10.74C297.248 8.94681 299.209 8.04928 301.53 8.04928C304.471 8.04928 306.37 9.17072 307.249 11.4136C309.048 9.1644 311.205 8.03979 313.721 8.03979C317.61 8.03979 319.962 10.0891 319.962 14.6812Z" fill="white"/>
<path d="M338.796 10.2817C340.43 11.8187 341.247 13.9002 341.247 16.5606C341.247 19.2209 340.43 21.3045 338.796 22.8073C337.162 24.3443 335.102 25.1129 332.586 25.1129C330.363 25.1129 328.565 24.4082 327.192 22.999V31.8416H322.128V8.35949H327.192V10.1261C328.565 8.71813 330.363 8.0135 332.586 8.01224C335.102 8.00655 337.162 8.77506 338.796 10.2817ZM335.952 16.5606C335.952 13.6138 334.09 11.6593 331.573 11.6593C329.089 11.6593 327.192 13.517 327.192 16.5606C327.192 19.6043 329.089 21.462 331.573 21.462C334.09 21.462 335.952 19.5076 335.952 16.5606Z" fill="white"/>
<path d="M359.216 20.2499V24.1306H343.379V20.2499H359.216Z" fill="white"/>
<path d="M405.254 22.1466L394.244 22.8296C393.178 22.8395 392.396 22.3564 392.378 21.6834V21.6642L393.831 6.99186C393.82 6.91509 393.669 6.8509 393.489 6.84692C391.624 7.40679 389.561 8.07585 389.216 8.27571L389.601 24.4755C389.619 25.1769 390.51 25.9241 392.431 25.9088L405.356 26.1888C405.472 26.1884 405.585 26.1454 405.671 26.0677C405.686 26.0546 405.697 26.037 405.701 26.0173L405.611 22.2988C405.611 22.2624 405.479 22.1466 405.254 22.1466Z" fill="white"/>
<path d="M409.361 8.70246C409.361 8.62438 409.206 8.54033 408.959 8.53967L406.417 9.14719H406.399C406.253 9.14719 406.111 9.19219 406.047 9.25837C406.039 9.26527 406.032 9.27394 406.027 9.28377C406.022 9.2936 406.02 9.30435 406.019 9.31529L406.747 24.715C406.753 24.7585 406.919 24.8883 407.144 24.8883L409.16 24.8685C409.297 24.876 409.432 24.8324 409.538 24.746C409.553 24.7336 409.564 24.7164 409.568 24.697L409.361 8.70246Z" fill="white"/>
<path d="M422.352 15.1218H422.327L417.593 15.6069C416.577 15.6162 415.747 15.9007 415.256 16.4077C415.095 16.5716 414.969 16.767 414.887 16.9816C414.805 17.1962 414.767 17.4255 414.777 17.6551L414.797 18.5029C414.797 18.5882 414.948 18.7186 415.121 18.7193L416.893 18.7007C416.999 18.6986 417.102 18.6554 417.178 18.5803C417.205 18.5559 417.222 18.5226 417.227 18.4863L417.219 18.1356C417.209 17.7756 417.311 17.4837 417.519 17.2686C417.784 16.9973 418.208 16.857 418.789 16.8524L419.539 16.8458H419.562C420.555 16.8458 421.203 17.3355 421.223 18.0972L421.235 18.6551C421.236 18.806 421.207 18.9557 421.149 19.095C421.091 19.2343 421.005 19.3604 420.897 19.4657C420.59 19.7827 420.109 19.9753 419.612 19.9813L417.696 19.9972C416.671 20.0051 415.843 20.2831 415.361 20.7794C415.199 20.9465 415.072 21.1453 414.99 21.3633C414.908 21.5813 414.871 21.8139 414.882 22.0467L414.917 23.4464C414.941 24.4701 416.066 25.6964 417.432 25.6964H417.446L422.131 25.4318C422.499 25.4327 422.864 25.3609 423.205 25.2205C423.545 25.0799 423.855 24.8736 424.116 24.6131C424.497 24.22 424.701 23.7488 424.69 23.2895V23.2816L424.869 16.943C424.843 15.8994 423.764 15.1218 422.352 15.1218ZM422.608 23.4907C422.306 23.8031 421.837 23.9778 421.285 23.9831L420.176 23.995H420.162C419.164 23.995 418.456 23.4656 418.442 22.6992V22.5146C418.432 22.1268 418.544 21.7999 418.765 21.5715C419.011 21.3168 419.381 21.1851 419.867 21.1811L421.256 21.1765H421.274C422.403 21.1765 422.923 21.8257 422.936 22.4716L422.94 22.6569C422.945 22.8111 422.917 22.9646 422.86 23.108C422.803 23.2513 422.717 23.3816 422.608 23.4907Z" fill="white"/>
<path d="M446.635 14.1642C446.308 13.6857 445.726 13.1173 444.833 13.1232L440.051 13.1656C439.065 13.1735 438.377 13.6718 437.973 14.0888C437.359 14.7227 436.989 15.5976 437.006 16.3719L437.03 17.2871C437.03 17.3851 437.19 17.5346 437.395 17.5346L438.597 17.5254C438.716 17.5218 438.83 17.4728 438.915 17.3884C438.947 17.36 438.968 17.3202 438.972 17.2772L438.965 16.8941C438.956 16.5076 439.064 16.1945 439.286 15.9676C439.567 15.677 440.027 15.5261 440.653 15.5189L442.189 15.5076C443.271 15.497 443.976 16.0238 443.999 16.8504L444.012 17.4539C444.014 17.6164 443.983 17.7776 443.921 17.9277C443.859 18.0779 443.767 18.2139 443.651 18.3274C443.32 18.6696 442.801 18.8767 442.261 18.8807L440.187 18.8999C439.296 18.9058 438.683 19.0945 438.313 19.4756C437.971 19.829 437.82 20.3545 437.84 21.1301L437.876 22.6522C437.908 23.9757 438.589 24.6375 439.906 24.6264H439.914L445.009 25.0703C445.936 25.0603 446.762 24.746 447.285 24.21C447.632 23.8513 447.814 23.4245 447.802 22.9738L447.278 16.0966C447.245 15.4058 447.022 14.7374 446.635 14.1642ZM445.028 22.9063C444.826 23.1148 444.516 23.2174 444.081 23.22L442.88 23.2339H442.856C441.786 23.2339 441.027 22.6648 441.007 21.8442L441.002 21.6397C440.997 21.4749 441.026 21.3108 441.086 21.1573C441.146 21.0038 441.237 20.8642 441.353 20.7469C441.684 20.4081 442.199 20.2175 442.809 20.2129L444.041 20.2056H444.068C445.275 20.2056 445.297 20.9772 445.313 21.5953L445.318 21.7939C445.33 22.1883 445.3 22.6244 445.028 22.9063Z" fill="white"/>
<path d="M458.834 10.3708H458.822L453.749 10.4126C453.569 10.4112 453.391 10.4466 453.226 10.5168C453.061 10.5869 452.912 10.6902 452.788 10.8202C452.391 11.2318 452.181 11.9214 452.201 12.7625L452.283 16.1244C452.317 17.5459 452.966 18.4591 453.942 18.4519L458.549 18.4115C458.912 18.4115 459.276 18.2361 459.577 17.9277C459.986 17.5049 460.213 16.8921 460.198 16.2448V16.2309L460.451 12.5249C460.421 11.3145 459.713 10.3708 458.834 10.3708ZM457.49 15.0258C457.215 15.3117 456.777 15.5135 456.424 15.5169L455.125 15.5281H455.116C454.539 15.5281 454.169 15.047 454.151 14.2707L454.132 13.384C454.12 12.9598 454.226 12.6189 454.439 12.3992C454.518 12.318 454.613 12.2536 454.718 12.2102C454.822 12.1667 454.935 12.145 455.048 12.1464L456.815 12.1279H456.819C457.371 12.1279 457.784 12.6659 457.803 13.4091L457.817 14.235C457.819 14.3821 457.791 14.5281 457.735 14.664C457.678 14.7999 457.595 14.923 457.49 15.0258Z" fill="white"/>
<path d="M474.683 22.1056C474.675 22.0611 474.652 22.021 474.617 21.9924C474.521 21.9042 474.397 21.8519 474.266 21.8442H474.26L468.486 21.8945C467.977 21.8813 467.743 21.6185 467.692 21.377C467.631 21.0845 467.81 20.792 468.149 20.6318L473.922 17.8801C474.355 17.6611 474.568 17.2647 474.553 16.7055L474.475 13.433C474.467 13.1683 474.332 13.1683 474.26 13.1683H474.246L461.853 12.2001C461.696 12.2047 461.539 12.3377 461.54 12.4648V12.4754V12.486L461.087 16.0305C461.097 16.1582 461.264 16.2879 461.418 16.2859L471.063 16.2032C471.435 16.1986 471.719 16.37 471.783 16.6386C471.832 16.8418 471.746 17.1257 471.36 17.3137L471.35 17.3183L465.01 19.8814C464.567 20.0845 464.428 20.3446 464.441 20.9528L464.711 24.6184C464.711 24.7541 464.889 24.9076 465.042 24.9076L474.335 24.8269C474.461 24.8137 474.578 24.7571 474.666 24.6666C474.705 24.6325 474.729 24.5855 474.736 24.5344L474.683 22.1056Z" fill="white"/>
<path d="M402.019 12.0703H402.013L397.586 11.7189C396.378 11.7308 395.397 12.0359 394.894 12.5567C394.77 12.6793 394.672 12.8263 394.607 12.9884C394.541 13.1506 394.51 13.3244 394.516 13.4991V13.5103L393.761 19.6827C393.792 20.8177 394.381 21.3498 395.793 21.5179L402.263 20.8759C403.713 20.8064 405.162 20.1744 405.13 18.9197L405.189 13.7955C405.16 12.7347 403.92 12.0544 402.019 12.0703ZM402.984 18.0667C402.984 18.1939 402.958 18.3197 402.908 18.4369C402.859 18.554 402.786 18.6601 402.695 18.749C402.37 19.0852 401.825 19.2784 401.2 19.2857L400.358 19.2956H400.324C398.883 19.2956 398.567 18.751 398.558 18.291L398.488 15.354C398.483 15.2273 398.504 15.1008 398.549 14.9824C398.595 14.8639 398.664 14.756 398.752 14.6651C399.047 14.36 399.562 14.1959 400.239 14.1906L401.534 14.1781C402.593 14.1694 403.261 14.6036 403.277 15.309V15.319L402.984 18.0667Z" fill="white"/>
<path d="M413.777 12.2967C413.777 12.2159 413.613 12.1292 413.355 12.1306H413.349L410.966 11.9585C410.825 11.9585 410.683 12.0068 410.62 12.0716C410.612 12.078 410.606 12.086 410.601 12.0952C410.597 12.1044 410.595 12.1144 410.595 12.1246L410.566 25.9783C410.573 26.0201 410.736 26.1424 410.955 26.1424L413.511 26.1192C413.648 26.1272 413.783 26.0835 413.89 25.9969C413.905 25.9847 413.915 25.968 413.92 25.9492L413.777 12.2967Z" fill="white"/>
<path d="M450.862 10.0578L447.947 10.0803C447.846 10.0807 447.747 10.1074 447.659 10.1577C447.636 10.1694 447.615 10.1865 447.599 10.2077C447.584 10.2289 447.573 10.2535 447.569 10.2795L448.807 24.6322C448.807 24.6911 448.981 24.834 449.2 24.8307L451.215 24.8115C451.35 24.8181 451.483 24.7726 451.585 24.6845C451.608 24.6648 451.622 24.6378 451.626 24.6084L451.286 10.2557C451.281 10.1392 451.103 10.0552 450.862 10.0578Z" fill="white"/>
<path d="M460.14 19.1587L456.259 19.1925C454.914 19.2031 453.877 19.4836 453.413 19.9621C453.335 20.0367 453.273 20.1266 453.231 20.2262C453.189 20.3258 453.168 20.433 453.169 20.5412V20.5518L452.717 24.4219C452.757 25.4979 454.248 25.8672 455.636 25.8533L460.87 25.8109C461.925 25.8003 463.698 25.5853 463.74 24.271L463.291 20.4836C463.056 19.577 462.021 19.1435 460.14 19.1587ZM460.897 23.404C460.831 24.1876 460.006 24.1982 459.277 24.2061L457.556 24.2194H457.309C456.846 24.2194 456.499 24.1916 456.282 23.9778C456.15 23.8488 456.084 23.6681 456.084 23.4252V23.4067L456.088 23.3888L456.523 21.5199C456.526 21.3724 456.586 21.2317 456.691 21.1275C456.998 20.8099 457.637 20.7371 458.12 20.7305L459.277 20.7199H459.316C460.726 20.7199 460.847 21.3155 460.85 21.4975L460.896 23.3915L460.897 23.404Z" fill="white"/>
<path d="M433.233 11.9188H433.223L421.503 11.2312C421.492 11.2322 421.482 11.2353 421.472 11.2404C421.462 11.2455 421.454 11.2525 421.447 11.261C421.381 11.3272 421.341 11.4728 421.345 11.6296L421.398 13.9101C421.403 14.1523 421.481 14.3349 421.578 14.3429L425.149 13.92C425.36 13.92 425.563 14.0649 425.697 14.323L425.715 14.3581L425.521 27.4919C425.526 27.6049 425.688 27.6943 425.882 27.6903L427.99 27.6711C428.143 27.6711 428.266 27.6333 428.326 27.5718C428.339 27.5591 428.349 27.544 428.356 27.5272C428.362 27.5105 428.366 27.4926 428.365 27.4746L427.914 23.5952C427.913 23.5141 427.929 23.4337 427.96 23.3588C427.991 23.2839 428.037 23.2162 428.096 23.1598C428.294 22.9613 428.625 22.8368 428.987 22.8335H428.994L433.876 23.2544C434.747 23.2471 435.703 23.1717 436.196 22.6681C436.465 22.3928 436.593 22.0063 436.585 21.4802L436.41 14.0616C436.378 12.8036 435.042 11.9029 433.233 11.9188ZM434.107 20.8416C433.821 21.138 433.366 21.3048 432.827 21.3101L431.623 21.3194H431.593C430.593 21.3194 429.831 20.7853 429.816 20.0679L429.713 15.7664C429.711 15.6291 429.737 15.4929 429.789 15.366C429.841 15.239 429.919 15.124 430.017 15.0278C430.336 14.6969 430.864 14.505 431.465 14.4984L432.669 14.4865C433.644 14.4805 434.307 14.9762 434.323 15.7214L434.425 20.0183C434.431 20.17 434.406 20.3213 434.351 20.4628C434.296 20.6044 434.213 20.7333 434.107 20.8416Z" fill="white"/>
<path d="M489.028 24.2405L488.785 22.5238C488.766 22.3577 488.714 22.2287 488.646 22.1757C488.628 22.1599 488.604 22.1514 488.58 22.1519C487.786 22.3603 486.421 22.6628 486.14 22.3776C486.061 22.2948 485.932 22.1605 486.003 18.5935C486.036 16.9066 486.1 15.2297 486.104 15.1271C486.073 13.8419 484.875 12.8843 483.32 12.8982L478.367 13.1404C477.976 13.1436 477.59 13.2259 477.231 13.3826C476.873 13.5392 476.55 13.7668 476.282 14.0517C475.66 14.6956 475.301 15.587 475.322 16.4341L475.342 17.4559C475.346 17.5883 475.52 17.7497 475.707 17.7458L477.452 17.7292C477.564 17.7253 477.671 17.6778 477.749 17.5968C477.795 17.5557 477.823 17.4983 477.828 17.4367L477.814 16.941C477.804 16.4361 477.795 16.0364 478.045 15.7789C478.224 15.5956 478.516 15.5089 478.963 15.5063L480.499 15.4891H480.516C481.585 15.4891 482.289 16.0701 482.313 16.9721L482.326 17.6432C482.332 17.8834 482.272 18.0634 482.143 18.1925C481.898 18.4373 481.471 18.4274 480.977 18.4148C480.865 18.4148 480.749 18.4095 480.63 18.4095H480.564L478.487 18.4267C477.428 18.4353 476.556 18.7417 476.027 19.287C475.614 19.7132 475.414 20.2645 475.431 20.9249L475.469 22.6158C475.498 23.8381 476.721 24.8241 478.2 24.8241H478.227L483.308 24.7792H483.383L488.908 24.6137C488.932 24.6086 488.954 24.5941 488.967 24.5734C489.026 24.4731 489.048 24.3551 489.028 24.2405ZM483.768 22.7184C483.443 23.0552 482.953 23.2438 482.39 23.2478L481.188 23.2557H481.168C480.094 23.2557 479.333 22.6297 479.315 21.727L479.309 21.5053C479.302 21.3155 479.334 21.1262 479.402 20.949C479.47 20.7717 479.574 20.6102 479.706 20.4743C480.037 20.1341 480.536 19.9449 481.117 19.9382L482.351 19.927C483.578 19.9164 484.147 20.6874 484.163 21.4557L484.172 21.6761C484.178 21.8675 484.146 22.0584 484.077 22.237C484.007 22.4156 483.903 22.5783 483.768 22.7151V22.7184Z" fill="white"/>
<path d="M486.735 13.8207L486.731 13.556H486.786C486.8 13.5542 486.814 13.5553 486.827 13.559C486.841 13.5628 486.853 13.5692 486.864 13.5778C486.906 13.6195 486.941 13.6686 486.965 13.7227L487.019 13.82H487.135L487.061 13.6989C487.036 13.6538 487.007 13.6116 486.972 13.5732C486.957 13.5597 486.941 13.5485 486.922 13.5401C486.945 13.5386 486.968 13.5326 486.989 13.5222C487.01 13.5119 487.028 13.4975 487.043 13.4799C487.072 13.4462 487.087 13.403 487.086 13.3588C487.084 13.3261 487.074 13.2943 487.057 13.2661C487.038 13.2385 487.011 13.2174 486.98 13.2059C486.931 13.192 486.88 13.1864 486.829 13.1893H486.63L486.645 13.8247L486.735 13.8207ZM486.836 13.2727C486.868 13.2714 486.9 13.2752 486.931 13.284C486.946 13.2915 486.96 13.3029 486.97 13.3171C486.981 13.3312 486.987 13.3487 486.987 13.3667C486.987 13.3793 486.985 13.3918 486.98 13.4032C486.974 13.4147 486.967 13.4248 486.957 13.4329C486.925 13.4566 486.884 13.4672 486.844 13.4627H486.728L486.722 13.2694L486.836 13.2727Z" fill="white"/>
<path d="M486.616 14.0067C486.699 14.0543 486.793 14.0796 486.888 14.0801C486.983 14.0797 487.076 14.0529 487.157 14.0027C487.242 13.9501 487.31 13.8732 487.351 13.7817C487.396 13.69 487.419 13.589 487.416 13.487C487.414 13.385 487.388 13.285 487.339 13.1953C487.292 13.104 487.219 13.0287 487.129 12.9789C487.049 12.931 486.958 12.9048 486.864 12.9028C486.771 12.906 486.68 12.9329 486.6 12.9809C486.515 13.0346 486.446 13.1109 486.401 13.2013C486.356 13.2936 486.334 13.3951 486.335 13.4978C486.338 13.5995 486.365 13.6992 486.413 13.789C486.46 13.8784 486.53 13.9536 486.616 14.0067ZM486.477 13.2496C486.513 13.1737 486.57 13.1103 486.642 13.0676C486.708 13.0247 486.784 13.0018 486.862 13.0014C486.941 13.0013 487.019 13.0221 487.088 13.0617C487.161 13.1039 487.221 13.167 487.259 13.243C487.302 13.3175 487.326 13.4013 487.33 13.4872C487.33 13.572 487.311 13.6558 487.273 13.732C487.24 13.809 487.183 13.8733 487.11 13.9154C487.044 13.9586 486.967 13.9816 486.888 13.9815C486.806 13.9807 486.725 13.9578 486.654 13.9152C486.583 13.8726 486.525 13.8119 486.486 13.7393C486.444 13.6644 486.421 13.5803 486.42 13.4945C486.418 13.4101 486.438 13.3268 486.477 13.2523V13.2496Z" fill="white"/>
<path d="M140.888 75.2952H139.271C139.146 75.292 139.028 75.2416 138.939 75.1544C138.85 75.0672 138.799 74.9499 138.796 74.8265V74.4516C138.799 74.3284 138.85 74.211 138.939 74.1238C139.028 74.0366 139.146 73.9862 139.271 73.983H140.654C140.78 73.983 140.901 73.9336 140.99 73.8457C141.079 73.7579 141.129 73.6387 141.129 73.5144C141.129 73.3901 141.079 73.2709 140.99 73.183C140.901 73.0951 140.78 73.0457 140.654 73.0457H139.259C139.134 73.0426 139.015 72.9922 138.926 72.905C138.838 72.8178 138.786 72.7004 138.783 72.5771V72.2022C138.786 72.079 138.838 71.9615 138.926 71.8744C139.015 71.7871 139.134 71.7367 139.259 71.7336H140.844C140.97 71.7336 141.091 71.6842 141.18 71.5963C141.27 71.5084 141.319 71.3893 141.319 71.265C141.319 71.1407 141.27 71.0215 141.18 70.9336C141.091 70.8457 140.97 70.7963 140.844 70.7963H138.942C138.868 70.7948 138.795 70.8191 138.737 70.8648C138.679 70.9104 138.64 70.9747 138.625 71.0463L137.61 75.7638V75.8575C137.628 75.967 137.687 76.0661 137.775 76.1354C137.863 76.2047 137.974 76.2393 138.086 76.2324H140.876C141.002 76.2324 141.123 76.183 141.212 76.0952C141.301 76.0073 141.351 75.8881 141.351 75.7638C141.351 75.6395 141.301 75.5203 141.212 75.4324C141.123 75.3445 141.002 75.2952 140.876 75.2952H140.888Z" fill="white"/>
<path d="M105.7 70.8276H105.066C104.973 70.8288 104.881 70.8558 104.803 70.9055C104.724 70.9552 104.662 71.0257 104.622 71.1088L103.227 74.4205C103.227 74.4287 103.224 74.4367 103.218 74.4425C103.212 74.4484 103.204 74.4516 103.195 74.4516C103.164 74.4516 103.164 74.4516 103.164 74.4205L101.769 71.1088C101.735 71.0243 101.68 70.9492 101.61 70.8901C101.483 70.7964 101.325 70.9213 101.293 71.0776L100.247 75.8576C100.239 75.9116 100.25 75.967 100.279 76.0138C100.317 76.0893 100.376 76.1528 100.448 76.197C100.521 76.2412 100.605 76.2643 100.691 76.2637H100.881C101.004 76.2575 101.12 76.2057 101.206 76.1188C101.292 76.0319 101.341 75.9163 101.344 75.7951V72.7334C101.344 72.7251 101.347 72.7172 101.353 72.7113C101.359 72.7054 101.367 72.7021 101.376 72.7021C101.384 72.7021 101.392 72.7054 101.398 72.7113C101.404 72.7172 101.407 72.7251 101.407 72.7334L102.707 75.9513C102.742 76.0382 102.803 76.1122 102.883 76.1627C102.963 76.2131 103.056 76.2376 103.151 76.2325H103.278C103.371 76.2313 103.462 76.2043 103.541 76.1546C103.619 76.1049 103.682 76.0345 103.722 75.9513L105.021 72.7646C105.021 72.7563 105.025 72.7484 105.031 72.7425C105.037 72.7367 105.044 72.7334 105.053 72.7334C105.062 72.7334 105.07 72.7367 105.076 72.7425C105.081 72.7484 105.085 72.7563 105.085 72.7646V75.7951C105.088 75.9184 105.139 76.0358 105.228 76.123C105.316 76.2102 105.435 76.2606 105.56 76.2637H105.75C105.876 76.2606 105.995 76.2102 106.083 76.123C106.172 76.0358 106.223 75.9184 106.226 75.7951V71.2963C106.204 71.1713 106.141 71.0572 106.045 70.9722C105.95 70.8872 105.828 70.8363 105.7 70.8276Z" fill="white"/>
<path d="M120.219 73.3582H118.824C118.706 73.3582 118.593 73.4043 118.51 73.4863C118.427 73.5683 118.38 73.6795 118.38 73.7956C118.38 73.9116 118.427 74.0228 118.51 74.1049C118.593 74.1868 118.706 74.2329 118.824 74.2329H119.077C119.331 74.2329 119.585 74.4516 119.458 74.7016C119.268 75.1077 118.887 75.3264 118.285 75.3264C117.397 75.3264 116.858 74.6703 116.858 73.5456C116.858 72.4209 117.429 71.7649 118.285 71.7649C118.483 71.7547 118.681 71.7954 118.859 71.8831C119.037 71.9707 119.188 72.1022 119.299 72.2647C119.349 72.3558 119.422 72.4325 119.511 72.4873C119.6 72.5421 119.702 72.5731 119.807 72.5771H120.092C120.156 72.5822 120.221 72.5719 120.28 72.547C120.339 72.5221 120.391 72.4834 120.431 72.4341C120.472 72.3849 120.5 72.3267 120.513 72.2645C120.525 72.2023 120.522 72.138 120.504 72.0773C120.306 71.6676 119.99 71.3247 119.595 71.0913C119.2 70.8579 118.745 70.7444 118.285 70.7651C116.827 70.7651 115.717 71.7961 115.717 73.5456C115.717 75.2952 116.763 76.3261 118.317 76.3261C119.712 76.3261 120.694 75.4513 120.694 74.0455V73.8268C120.696 73.7649 120.684 73.7034 120.661 73.6459C120.637 73.5885 120.602 73.5364 120.558 73.4926C120.514 73.4488 120.461 73.4143 120.402 73.3913C120.344 73.3682 120.282 73.3569 120.219 73.3582Z" fill="white"/>
<path d="M111.976 71.14C111.944 71.0494 111.884 70.9708 111.804 70.9149C111.725 70.859 111.63 70.8285 111.532 70.8276H110.708C110.611 70.8285 110.516 70.859 110.436 70.9149C110.357 70.9708 110.297 71.0494 110.264 71.14L108.679 75.6389C108.656 75.7092 108.649 75.784 108.66 75.8574C108.67 75.9308 108.699 76.0006 108.742 76.0613C108.785 76.1221 108.842 76.172 108.908 76.2072C108.974 76.2423 109.048 76.2616 109.123 76.2637H109.377C109.474 76.2628 109.569 76.2323 109.649 76.1764C109.728 76.1206 109.788 76.0419 109.821 75.9513L110.011 75.3577C110.043 75.267 110.103 75.1884 110.183 75.1325C110.262 75.0767 110.357 75.0462 110.455 75.0453H111.754C111.852 75.0462 111.947 75.0767 112.026 75.1325C112.106 75.1884 112.166 75.267 112.198 75.3577L112.388 75.9513C112.421 76.0419 112.481 76.1206 112.56 76.1764C112.64 76.2323 112.735 76.2628 112.832 76.2637H113.086C113.161 76.2616 113.235 76.2423 113.301 76.2072C113.367 76.172 113.424 76.1221 113.467 76.0613C113.51 76.0006 113.539 75.9308 113.549 75.8574C113.56 75.784 113.553 75.7092 113.53 75.6389L111.976 71.14ZM111.171 74.1081H111.076C111.001 74.106 110.927 74.0866 110.861 74.0515C110.795 74.0163 110.738 73.9664 110.695 73.9057C110.651 73.8449 110.623 73.7751 110.612 73.7017C110.602 73.6284 110.608 73.5535 110.632 73.4832L111.108 72.046C111.108 72.0378 111.111 72.0298 111.117 72.0239C111.123 72.0181 111.131 72.0148 111.139 72.0148C111.148 72.0148 111.156 72.0181 111.162 72.0239C111.168 72.0298 111.171 72.0378 111.171 72.046L111.647 73.4832C111.664 73.5557 111.665 73.631 111.649 73.7039C111.634 73.7768 111.602 73.8455 111.557 73.9051C111.512 73.9646 111.453 74.0137 111.387 74.0488C111.32 74.0838 111.246 74.104 111.171 74.1081Z" fill="white"/>
<path d="M123.896 70.8276H123.674C123.549 70.8308 123.43 70.8812 123.342 70.9684C123.253 71.0556 123.202 71.173 123.199 71.2963V75.7951C123.202 75.9184 123.253 76.0358 123.342 76.123C123.43 76.2102 123.549 76.2606 123.674 76.2637H123.896C124.021 76.2606 124.14 76.2102 124.229 76.123C124.317 76.0358 124.368 75.9184 124.372 75.7951V71.2963C124.363 71.1746 124.311 71.06 124.223 70.9739C124.136 70.8876 124.019 70.8357 123.896 70.8276Z" fill="white"/>
<path d="M129.444 71.7648C129.657 71.759 129.869 71.8078 130.058 71.9063C130.246 72.0048 130.406 72.1499 130.522 72.3272C130.563 72.436 130.636 72.53 130.732 72.5969C130.829 72.6638 130.943 72.7005 131.061 72.7021H131.282C131.346 72.7072 131.411 72.6969 131.47 72.672C131.53 72.6471 131.581 72.6083 131.622 72.5592C131.663 72.5099 131.691 72.4517 131.703 72.3895C131.716 72.3273 131.713 72.263 131.694 72.2022C131.378 71.265 130.522 70.7339 129.412 70.7339C127.954 70.7339 126.844 71.7336 126.844 73.5144C126.844 75.2951 127.922 76.2949 129.412 76.2949C130.585 76.2949 131.378 75.6701 131.663 74.889C131.681 74.8282 131.684 74.7639 131.672 74.7017C131.659 74.6396 131.631 74.5814 131.59 74.5322C131.549 74.4829 131.498 74.4442 131.439 74.4193C131.379 74.3944 131.315 74.384 131.251 74.3892H130.997C130.882 74.3992 130.771 74.4392 130.676 74.505C130.582 74.5708 130.506 74.6602 130.458 74.7641C130.352 74.943 130.199 75.0899 130.015 75.189C129.83 75.2882 129.622 75.3357 129.412 75.3264C128.588 75.3264 128.017 74.7016 128.017 73.5456C128.017 72.3897 128.588 71.7648 129.444 71.7648Z" fill="white"/>
<path d="M145.865 70.8276H144.375C144.25 70.8308 144.131 70.8812 144.043 70.9684C143.954 71.0556 143.903 71.173 143.9 71.2963V75.7951C143.903 75.9184 143.954 76.0358 144.043 76.123C144.131 76.2102 144.25 76.2606 144.375 76.2637H145.865C147.545 76.2637 148.56 75.2327 148.56 73.5457C148.56 71.8586 147.514 70.8276 145.865 70.8276ZM145.802 75.264H145.548C145.423 75.2608 145.304 75.2104 145.215 75.1232C145.127 75.036 145.076 74.9187 145.073 74.7954V72.2648C145.076 72.1415 145.127 72.0241 145.215 71.9369C145.304 71.8497 145.423 71.7993 145.548 71.7961H145.802C146.848 71.7961 147.387 72.3272 147.387 73.5144C147.387 74.7016 146.848 75.264 145.802 75.264Z" fill="white"/>
<path d="M154.267 75.2952H152.65C152.524 75.2921 152.406 75.2417 152.317 75.1545C152.228 75.0673 152.177 74.9499 152.174 74.8266V74.4517C152.177 74.3284 152.228 74.2111 152.317 74.1238C152.406 74.0366 152.524 73.9862 152.65 73.9831H154.044C154.171 73.9831 154.291 73.9337 154.381 73.8458C154.47 73.7579 154.52 73.6387 154.52 73.5144C154.52 73.3902 154.47 73.2709 154.381 73.1831C154.291 73.0952 154.171 73.0458 154.044 73.0458H152.65C152.524 73.0427 152.406 72.9923 152.317 72.9051C152.228 72.8178 152.177 72.7005 152.174 72.5772V72.2023C152.177 72.079 152.228 71.9616 152.317 71.8744C152.406 71.7872 152.524 71.7368 152.65 71.7336H154.235C154.361 71.7336 154.482 71.6843 154.571 71.5964C154.66 71.5085 154.71 71.3893 154.71 71.2651C154.71 71.1408 154.66 71.0215 154.571 70.9337C154.482 70.8458 154.361 70.7964 154.235 70.7964H151.477C151.352 70.7996 151.232 70.8499 151.144 70.9372C151.055 71.0244 151.004 71.1417 151.001 71.2651V75.7639C151.004 75.8872 151.055 76.0045 151.144 76.0917C151.232 76.179 151.352 76.2293 151.477 76.2325H154.267C154.392 76.2293 154.51 76.179 154.599 76.0917C154.688 76.0045 154.738 75.8872 154.742 75.7639C154.743 75.702 154.732 75.6405 154.709 75.583C154.685 75.5255 154.65 75.4734 154.606 75.4296C154.561 75.3858 154.508 75.3514 154.45 75.3283C154.392 75.3052 154.329 75.2939 154.267 75.2952Z" fill="white"/>
<path d="M161.43 70.8276H161.209C161.084 70.8308 160.964 70.8812 160.876 70.9684C160.787 71.0556 160.736 71.173 160.733 71.2963V74.2017C160.733 74.233 160.733 74.233 160.702 74.233H160.67L158.451 71.0463C158.408 70.9868 158.351 70.9385 158.284 70.9059C158.218 70.8732 158.144 70.857 158.07 70.8589H157.772C157.647 70.862 157.528 70.9124 157.44 70.9996C157.351 71.0869 157.3 71.2042 157.297 71.3275V75.8263C157.3 75.9496 157.351 76.067 157.44 76.1542C157.528 76.2414 157.647 76.2918 157.772 76.2949H157.994C158.12 76.2918 158.238 76.2414 158.327 76.1542C158.415 76.067 158.466 75.9496 158.47 75.8263V72.8896C158.47 72.8813 158.473 72.8734 158.479 72.8675C158.485 72.8616 158.493 72.8584 158.502 72.8584H158.533L160.784 76.045C160.827 76.1045 160.884 76.1528 160.95 76.1854C161.017 76.2181 161.09 76.2343 161.164 76.2325H161.449C161.575 76.2293 161.694 76.1789 161.782 76.0917C161.871 76.0045 161.922 75.8872 161.925 75.7639V71.265C161.903 71.1484 161.843 71.0421 161.754 70.9629C161.664 70.8837 161.551 70.8361 161.43 70.8276Z" fill="white"/>
<path d="M86.5614 69.8372L88.0292 71.5617C88.1972 71.7555 88.3462 71.9148 88.4064 72.0054C88.8454 72.4416 89.0915 73.0312 89.0912 73.6456C89.05 74.3704 88.5776 74.864 88.1402 75.392L87.113 76.598L86.5773 77.2228C86.5581 77.2443 86.5457 77.2709 86.5416 77.2994C86.5376 77.3278 86.5421 77.3567 86.5546 77.3826C86.567 77.4086 86.5869 77.4303 86.6118 77.4452C86.6367 77.4601 86.6654 77.4675 86.6945 77.4665H92.0489C92.8668 77.4665 93.8971 78.1538 93.8369 79.1973C93.8352 79.6715 93.6433 80.1259 93.303 80.4613C92.9627 80.7967 92.5017 80.9858 92.0204 80.9874H83.6354C83.0838 80.9874 81.6002 81.0468 81.1849 79.7815C81.0966 79.5171 81.0845 79.2337 81.15 78.9629C81.2707 78.5626 81.4617 78.1861 81.7143 77.8507C82.1359 77.2259 82.5924 76.601 83.0426 75.995C83.6227 75.2014 84.2187 74.4329 84.8052 73.6237C84.826 73.5974 84.8373 73.5649 84.8373 73.5316C84.8373 73.4982 84.826 73.4658 84.8052 73.4394L82.6748 70.94C82.6609 70.9219 82.643 70.9072 82.6223 70.8971C82.6017 70.887 82.579 70.8817 82.556 70.8817C82.5329 70.8817 82.5102 70.887 82.4896 70.8971C82.469 70.9072 82.4509 70.9219 82.437 70.94C81.8664 71.6992 79.3684 75.0609 78.8358 75.7419C78.3032 76.423 76.9908 76.4605 76.2648 75.7419L72.933 72.4459C72.9118 72.4249 72.8846 72.4105 72.855 72.4047C72.8255 72.3989 72.7948 72.4019 72.767 72.4132C72.7391 72.4246 72.7153 72.4439 72.6986 72.4686C72.6819 72.4933 72.673 72.5224 72.6731 72.5521V78.8911C72.6809 79.3409 72.5458 79.7819 72.2865 80.1522C72.0273 80.5225 71.657 80.8037 71.2275 80.9562C70.9531 81.0503 70.6598 81.0784 70.3721 81.0382C70.0844 80.9979 69.8106 80.8904 69.5736 80.7247C69.3366 80.5591 69.1433 80.3399 69.0096 80.0856C68.8761 79.8313 68.8061 79.5492 68.8055 79.2629V67.8658C68.8246 67.4551 68.9746 67.0608 69.2341 66.7388C69.4936 66.4169 69.8494 66.1838 70.2511 66.0725C70.5956 65.9821 70.9583 65.983 71.3023 66.0752C71.6464 66.1673 71.9596 66.3475 72.2102 66.5974L77.3332 71.6523C77.3485 71.6677 77.367 71.6795 77.3876 71.687C77.4081 71.6945 77.43 71.6975 77.4518 71.6957C77.4735 71.6939 77.4946 71.6874 77.5136 71.6767C77.5326 71.6659 77.5488 71.6513 77.5614 71.6336L81.2007 66.6693C81.3689 66.4677 81.5797 66.3049 81.8185 66.1921C82.0573 66.0793 82.3182 66.0193 82.5829 66.0163H92.0489C92.3079 66.0168 92.564 66.0717 92.7997 66.1774C93.0355 66.2832 93.2457 66.4374 93.4161 66.6296C93.5866 66.8218 93.7134 67.0477 93.7882 67.2922C93.8629 67.5366 93.8839 67.794 93.8496 68.047C93.7829 68.486 93.5569 68.8862 93.2135 69.1735C92.8701 69.4607 92.4327 69.6155 91.9823 69.6092H86.6819C86.6552 69.6098 86.6293 69.6174 86.6066 69.6313C86.5841 69.6452 86.5656 69.6649 86.5533 69.6881C86.5411 69.7114 86.5353 69.7376 86.5367 69.7637C86.5381 69.79 86.5467 69.8153 86.5614 69.8372Z" fill="white"/>
<path d="M195.201 76.2923C195.201 77.4505 195.455 78.3398 195.788 78.8777C196.223 79.5824 196.873 79.8809 197.535 79.8809C198.39 79.8809 199.172 79.6688 200.678 77.5856C201.885 75.9157 203.307 73.5718 204.263 72.1024L205.884 69.613C207.009 67.8841 208.312 65.9621 209.805 64.6594C211.025 63.5961 212.34 63.0054 213.664 63.0054C215.887 63.0054 218.004 64.2933 219.624 66.709C221.397 69.3545 222.258 72.6868 222.258 76.1256C222.258 78.1699 221.855 79.672 221.169 80.8587C220.507 82.0064 219.216 83.153 217.044 83.153V79.8809C218.904 79.8809 219.368 78.172 219.368 76.2163C219.368 73.4294 218.718 70.3366 217.286 68.1267C216.271 66.5592 214.954 65.6014 213.506 65.6014C211.939 65.6014 210.679 66.7828 209.262 68.8893C208.509 70.0085 207.736 71.3725 206.868 72.9114L205.912 74.6045C203.992 78.0085 203.506 78.7839 202.546 80.0634C200.863 82.3039 199.427 83.153 197.535 83.153C195.292 83.153 193.873 82.1815 192.994 80.7174C192.277 79.5243 191.925 77.9589 191.925 76.1752L195.201 76.2923Z" fill="white"/>
<path d="M194.508 66.94C196.01 64.6246 198.178 63.0054 200.664 63.0054C202.104 63.0054 203.535 63.4315 205.03 64.652C206.665 65.9864 208.407 68.1836 210.582 71.8049L211.361 73.1045C213.243 76.2396 214.314 77.8524 214.94 78.6129C215.746 79.5898 216.31 79.8809 217.044 79.8809C218.903 79.8809 219.367 78.172 219.367 76.2163L222.258 76.1256C222.258 78.1699 221.855 79.672 221.169 80.8587C220.507 82.0064 219.215 83.153 217.044 83.153C215.693 83.153 214.497 82.8598 213.174 81.6119C212.157 80.6541 210.969 78.9527 210.054 77.4231L207.334 72.8788C205.969 70.5982 204.717 68.8978 203.992 68.1277C203.212 67.2997 202.21 66.2997 200.611 66.2997C199.317 66.2997 198.218 67.2079 197.298 68.5971L194.508 66.94Z" fill="white"/>
<path d="M200.611 66.2997C199.317 66.2997 198.218 67.2079 197.298 68.5971C195.997 70.5602 195.201 73.4842 195.201 76.2923C195.201 77.4505 195.455 78.3398 195.788 78.8777L192.994 80.7174C192.277 79.5243 191.925 77.9589 191.925 76.1752C191.925 72.9315 192.815 69.5507 194.508 66.94C196.01 64.6246 198.178 63.0054 200.664 63.0054L200.611 66.2997Z" fill="white"/>
<path d="M228.627 63.6425H232.417L238.861 75.3006L245.306 63.6425H249.014V82.7986H245.922V68.1171L240.27 78.2838H237.369L231.719 68.1171V82.7986H228.627V63.6425ZM258.702 70.7849C256.484 70.7849 255.149 72.4536 254.829 74.5201H262.355C262.2 72.3914 260.972 70.7849 258.702 70.7849ZM251.764 75.6973C251.764 71.3492 254.574 68.1847 258.756 68.1847C262.868 68.1847 265.324 71.3091 265.324 75.9293V76.7785H254.829C255.202 79.0264 256.693 80.5412 259.098 80.5412C261.017 80.5412 262.216 79.9557 263.354 78.885L264.996 80.8966C263.449 82.3196 261.48 83.1404 258.989 83.1404C254.462 83.1404 251.764 79.8397 251.764 75.6973ZM269.073 71.0591H266.227V68.5275H269.073V64.3408H272.056V68.5275H276.38V71.0591H272.056V77.4758C272.056 79.6667 272.757 80.4452 274.478 80.4452C275.264 80.4452 275.714 80.3777 276.38 80.2669V82.7711C275.551 83.0053 274.76 83.1129 273.903 83.1129C270.683 83.1129 269.073 81.3534 269.073 77.8313V71.0591ZM288.941 73.5211C288.342 72.0085 287.006 70.8946 285.041 70.8946C282.489 70.8946 280.855 72.7058 280.855 75.6562C280.855 78.5327 282.359 80.4315 284.919 80.4315C286.932 80.4315 288.368 79.2606 288.941 77.8038V73.5211ZM291.924 82.7986H288.996V80.8006C288.178 81.9768 286.688 83.1404 284.276 83.1404C280.396 83.1404 277.803 79.8924 277.803 75.6562C277.803 71.3798 280.458 68.1847 284.44 68.1847C286.409 68.1847 287.953 68.9716 288.996 70.3608V68.5275H291.924V82.7986Z" fill="white"/>
<path d="M321.925 81.5204L322.729 78.1035H330.912L331.371 77.7303L331.572 76.9263L331.314 76.6104H325.657L323.446 73.7392L324.193 70.4946L326.978 68.2263H337.085L336.281 71.6431H328.5L328.012 72.0164L327.84 72.8204L328.098 73.1362H333.754L335.965 76.0075L335.219 79.2521L332.405 81.5204H321.925Z" fill="white"/>
<path d="M339.899 81.5204L342.167 71.6431H337.315L338.119 68.2263H351.987L351.212 71.6431H346.359L344.062 81.5204H339.899Z" fill="white"/>
<path d="M350.063 81.5204L353.136 68.2263H365.31L364.506 71.6431H356.524L356.15 73.251H362.037L361.319 76.2946H355.433L355.031 78.1035H363.214L362.41 81.5204H350.063Z" fill="white"/>
<path d="M376.766 68.2263H366.516L363.444 81.5204H367.636L368.382 78.1897H374.871L377.771 75.8352L378.891 70.9827L376.766 68.2263ZM373.981 74.1986L373.292 74.7728H369.215L369.933 71.6431H374.067L374.469 72.1599L373.981 74.1986Z" fill="white"/>
<path d="M382.308 81.5204L385.38 68.2263H391.295L393.334 76.9837H393.908L395.946 68.2263H399.851L396.751 81.5204H390.836L388.797 72.7629H388.194L386.184 81.5204H382.308Z" fill="white"/>
<path fill-rule="evenodd" clip-rule="evenodd" d="M382.738 64.0054L379.293 70.4083L381.676 70.3796L381.475 74.4568L384.547 68.2262H382.25L382.738 64.0054Z" fill="white"/>
<path fill-rule="evenodd" clip-rule="evenodd" d="M404.388 73.3946C404.388 73.1936 404.216 73.05 404.044 73.05H401.287C401.086 73.05 400.942 73.2223 400.942 73.3946C400.942 73.5956 401.114 73.7392 401.287 73.7392H404.044C404.244 73.7392 404.388 73.5669 404.388 73.3946Z" fill="white"/>
<path fill-rule="evenodd" clip-rule="evenodd" d="M406.714 76.4095C406.714 76.2085 406.541 76.0649 406.369 76.0649H403.613C403.411 76.0649 403.268 76.2372 403.268 76.4095C403.268 76.6105 403.44 76.7541 403.613 76.7541H406.369C406.541 76.7541 406.714 76.6105 406.714 76.4095Z" fill="white"/>
<path fill-rule="evenodd" clip-rule="evenodd" d="M405.91 74.9163C405.91 75.1173 405.738 75.2609 405.566 75.2609H402.522C402.321 75.2609 402.177 75.0886 402.177 74.9163C402.177 74.7153 402.349 74.5717 402.522 74.5717H405.566C405.766 74.543 405.91 74.7153 405.91 74.9163Z" fill="white"/>
<path fill-rule="evenodd" clip-rule="evenodd" d="M401.459 74.543C401.258 74.543 401.114 74.7153 401.114 74.8875C401.114 75.0885 401.287 75.2321 401.459 75.2321H401.603C401.803 75.2321 401.947 75.0598 401.947 74.8875C401.947 74.6866 401.775 74.543 401.603 74.543H401.459Z" fill="white"/>
<path fill-rule="evenodd" clip-rule="evenodd" d="M407.89 77.9311C407.89 77.7302 407.718 77.5865 407.546 77.5865H401.631C401.431 77.5865 401.287 77.7589 401.287 77.9311C401.287 78.1321 401.459 78.2757 401.631 78.2757H407.546C407.747 78.2757 407.89 78.1321 407.89 77.9311Z" fill="white"/>
<path fill-rule="evenodd" clip-rule="evenodd" d="M418.802 77.5291C417.711 77.0984 417.194 76.8401 416.735 77.2421C416.964 76.7826 416.878 76.7539 416.677 76.4381C416.304 75.7777 415.299 74.6866 414.955 72.5906C414.955 72.5906 415.5 71.0975 415.557 70.15C415.557 70.15 415.758 69.547 414.84 69.8341C414.84 69.8341 413.662 70.552 413.031 70.7242C411.882 70.5807 410.188 69.748 409.557 68.4846C409.557 68.4846 410.073 67.3935 409.614 67.1351C409.298 66.9629 408.351 67.9391 408.351 67.9391L405.278 71.4995L405.049 71.9301C404.962 72.1025 404.962 72.3321 405.106 72.5331C405.91 73.6242 409.097 77.845 410.935 80.1133C405.738 80.1421 402.924 80.946 404.934 81.2331C406.57 81.4628 410.246 81.4054 413.031 81.3767C413.375 81.4915 413.72 81.5776 414.093 81.6064L418.802 81.6351C419.405 81.6064 419.951 81.5489 420.41 81.5202C420.697 81.4915 420.955 81.2906 421.042 81.0321C421.558 79.7113 420.755 78.3044 418.802 77.5291ZM410.446 77.041L410.561 74.945H409.327L411.078 71.6431L410.82 73.7965H411.997L410.446 77.041Z" fill="white"/>
</svg>
