<svg width="198" height="45" viewBox="0 0 198 45" fill="none" xmlns="http://www.w3.org/2000/svg">
<path d="M47.2228 44.4676H35.9836C35.9621 44.4549 35.9237 44.4244 35.8681 44.3815C35.8428 44.3639 35.8126 44.3386 35.782 44.3171C35.5633 44.1497 35.2113 43.8969 34.9672 43.7679C33.4358 42.979 31.8663 42.2579 30.3703 41.4047C29.4134 40.8642 28.5221 40.1911 27.6641 39.4923C26.9996 38.9519 26.8794 38.176 27.2781 37.4165C28.0882 35.8724 28.5436 34.1576 29.6929 32.7806C30.0573 32.3428 30.3017 31.7467 30.4259 31.1857C30.512 30.7527 30.4902 30.1136 30.2286 29.8136C29.6714 29.1705 29.5385 28.5011 29.6108 27.7164C29.645 27.3215 29.6235 26.9277 29.6108 26.528C29.5209 23.9803 28.0882 21.9994 25.7125 21.502C24.4646 21.245 23.1736 21.2108 21.9091 21.4072C19.2842 21.8235 17.6981 23.8083 17.6033 26.4635C17.5818 27.0851 17.6502 27.7076 17.5779 28.3203C17.5349 28.7278 17.3981 29.1783 17.1537 29.495C16.6905 30.1087 16.5449 30.7253 16.841 31.425C17.0511 31.9186 17.227 32.467 17.5662 32.8615C18.733 34.2298 19.1395 35.9703 19.9633 37.5017C20.3318 38.1787 20.2077 38.8911 19.6204 39.3975C18.8659 40.0534 18.0851 40.7225 17.2192 41.2162C15.7181 42.0654 14.1526 42.7896 12.6046 43.5488C12.244 43.7247 11.7036 44.102 11.4124 44.3159C11.3782 44.3376 11.344 44.363 11.3176 44.3805C11.258 44.4235 11.2189 44.4537 11.2062 44.4667H0L0.0469069 44.3805L0.0811124 44.3159L23.6114 0.731445L47.1419 44.318L47.176 44.3824L47.2228 44.4685V44.4676Z" fill="white"/>
<path d="M56.8095 14.8088H60.9425L67.5292 30.3911H62.9322L61.8053 27.6284H55.8373L54.7319 30.3911H50.2228L56.8095 14.8088ZM60.5672 24.2911L58.8434 19.8925L57.0968 24.2911H60.5672Z" fill="white"/>
<path d="M70.5292 14.864H74.5298L80.8956 23.0417V14.864H85.14V30.3359H81.3823L74.7733 21.8485V30.3359H70.5292V14.864Z" fill="white"/>
<path d="M94.0192 24.5447L88.14 14.864H93.0243L96.2074 20.4998L99.4116 14.864H104.208L98.3289 24.4782V30.3359H94.0192V24.5447Z" fill="white"/>
<path d="M107.208 14.864H115.143C117.088 14.864 118.459 15.3507 119.365 16.2566C119.984 16.8752 120.36 17.6932 120.36 18.7545V18.7984C120.36 20.5888 119.343 21.6501 117.972 22.2462C119.851 22.8648 121.045 23.9261 121.045 26.0262V26.0702C121.045 28.7224 118.878 30.3359 115.187 30.3359H107.208V14.864ZM114.082 21.0305C115.386 21.0305 116.116 20.5888 116.116 19.6819V19.6379C116.116 18.7984 115.452 18.3118 114.171 18.3118H111.386V21.0305H114.082ZM114.7 26.8882C116.004 26.8882 116.756 26.38 116.756 25.4731V25.4291C116.756 24.5896 116.092 24.0365 114.656 24.0365H111.385V26.8882H114.7Z" fill="white"/>
<path d="M124.045 22.6444V22.6005C124.045 18.1579 127.626 14.5547 132.4 14.5547C137.173 14.5547 140.71 18.1129 140.71 22.5555V22.5995C140.71 27.0421 137.129 30.6452 132.355 30.6452C127.581 30.6452 124.045 27.087 124.045 22.6444ZM136.334 22.6444V22.6005C136.334 20.3684 134.72 18.4227 132.355 18.4227C130.013 18.4227 128.443 20.3235 128.443 22.5555V22.5995C128.443 24.8315 130.057 26.7773 132.4 26.7773C134.765 26.7773 136.335 24.8765 136.335 22.6444H136.334Z" fill="white"/>
<path d="M143.71 14.864H149.678C155.204 14.864 158.409 18.0469 158.409 22.512V22.556C158.409 27.0211 155.16 30.3359 149.591 30.3359H143.711V14.864H143.71ZM149.745 26.5344C152.309 26.5344 154.01 25.1193 154.01 22.6224V22.5785C154.01 20.1031 152.308 18.6665 149.745 18.6665H147.998V26.5354H149.745V26.5344Z" fill="white"/>
<path d="M161.409 14.864H165.719V30.3359H161.409V14.864Z" fill="white"/>
<path d="M168.719 14.864H181.163V18.5111H172.963V20.8536H180.389V24.2349H172.963V26.6888H181.274V30.3359H168.719V14.864Z" fill="white"/>
<path d="M184.274 28.0369L186.661 25.1853C188.186 26.401 189.888 27.0421 191.678 27.0421C192.827 27.0421 193.446 26.6443 193.446 25.9808V25.9368C193.446 25.2957 192.938 24.942 190.838 24.4563C187.544 23.7048 185.003 22.7764 185.003 19.5934V19.5495C185.003 16.6763 187.279 14.5987 190.992 14.5987C193.622 14.5987 195.678 15.3062 197.358 16.6539L195.214 19.6824C193.799 18.6875 192.252 18.1569 190.882 18.1569C189.843 18.1569 189.335 18.5986 189.335 19.1517V19.1957C189.335 19.9033 189.865 20.212 192.009 20.6987C195.568 21.4727 197.778 22.622 197.778 25.5176V25.5615C197.778 28.722 195.28 30.6012 191.523 30.6012C188.781 30.6012 186.174 29.7393 184.274 28.0369Z" fill="white"/>
</svg>
